<svg version="1.1" viewBox="0.0 0.0 960.0 960.0" fill="none" stroke="none" stroke-linecap="square" stroke-miterlimit="10" xmlns:xlink="http://www.w3.org/1999/xlink" xmlns="http://www.w3.org/2000/svg"><clipPath id="p.0"><path d="m0 0l960.0 0l0 960.0l-960.0 0l0 -960.0z" clip-rule="nonzero"/></clipPath><g clip-path="url(#p.0)"><path fill="#000000" fill-opacity="0.0" d="m0 0l960.0 0l0 960.0l-960.0 0z" fill-rule="evenodd"/><defs><linearGradient id="p.1" gradientUnits="userSpaceOnUse" gradientTransform="matrix(30.983901573136713 0.0 0.0 30.983901573136713 0.0 0.0)" spreadMethod="pad" x1="6.651328698802877E-4" y1="-2.8403099268793034E-4" x2="5.52971463687819E-4" y2="30.98361754194102"><stop offset="0.0" stop-color="#76dab2"/><stop offset="1.0" stop-color="#46ba8c"/></linearGradient></defs><path fill="url(#p.1)" d="m0.020608399 159.99765l0 0c0 -88.3672 71.63577 -160.00298 160.00298 -160.00298l639.99426 0l0 0c42.435425 0 83.13281 16.857409 113.13922 46.863785c30.006348 30.006378 46.86377 70.703766 46.86377 113.13919l0 639.9927c0 88.36719 -71.6358 160.00299 -160.00299 160.00299l-639.99426 0l0 0c-88.36721 0 -160.00298 -71.6358 -160.00298 -160.00299z" fill-rule="evenodd"/><path fill="#ffffff" d="m370.2853 643.04486c-26.359558 86.296875 -103.27185 34.127747 -124.67038 56.604004c-21.398514 22.476318 -25.119293 64.37964 -3.7207642 78.25372c21.39853 13.874084 98.61914 46.059204 132.11194 4.9907837c33.492767 -41.06842 57.370667 -176.48102 68.84479 -251.4013c11.474152 -74.92026 -32.251373 -155.3883 0 -198.1203c32.251373 -42.732025 146.99158 -31.910309 193.50824 -58.27179c46.516663 -26.361496 124.35626 -84.35843 85.5918 -99.897156c-38.764465 -15.538727 -259.5677 -71.30888 -318.17862 6.6647797c-58.61093 77.97368 -7.1274414 374.88037 -33.487 461.17725z" fill-rule="evenodd"/><path fill="#d3dae2" d="m169.0616 821.13635c0.679718 0 1.1178589 0.22271729 1.3144379 0.66815186c0.34301758 0.9818115 0.036117554 2.8052368 -0.9207306 5.470215c-0.938797 2.6448975 -2.265747 5.4501343 -3.980835 8.415649c-1.7150726 2.9454346 -3.5204468 5.4000244 -5.4160767 7.3637085c-3.430191 3.6868286 -7.0048065 6.7625732 -10.723846 9.227173c-2.486084 1.6474609 -4.960083 2.4712524 -7.421997 2.4712524c-1.2209473 0 -2.4389038 -0.20257568 -3.6539001 -0.6077881l1.8414764 -5.380066c1.3359528 -3.44635 3.3308868 -6.862732 5.9847717 -10.249023c2.671936 -3.3862915 6.002838 -6.8026733 9.992676 -10.249084c3.5385132 -2.9454956 6.6979065 -4.9993286 9.478149 -6.161499c1.5188446 -0.645813 2.6874847 -0.96868896 3.5058746 -0.96868896zm-41.935776 -67.64899c-2.99691 0 -6.8242645 0.9217529 -11.482101 2.7651978c-4.6578293 1.8433838 -10.70578 4.7387695 -18.143883 8.686157c-2.2205887 2.3443604 -4.269684 3.9473267 -6.147255 4.808899c-1.8775635 0.8616333 -3.0961838 1.4727783 -3.6558533 1.833435l-0.43328857 0c-0.27080536 0 -0.4603653 0.3106079 -0.56868744 0.9317627c0 0 -0.5055084 0.52093506 -1.5165024 1.5628662c-0.99295807 1.0419312 -1.9317551 2.053833 -2.816368 3.0356445c-1.2096024 0.88165283 -2.7621994 2.364441 -4.6578293 4.448303c-1.8775711 2.0838623 -3.818344 4.418213 -5.8222885 7.0030518c-1.9858932 2.5847778 -3.7912598 5.1395264 -5.4160843 7.6642456c-1.6067657 2.5246582 -2.7441444 4.6486206 -3.412136 6.371826c-1.4262466 2.9655151 -2.2567215 6.291748 -2.4913979 9.978577c-0.21664429 3.6868896 0.11733627 7.16333 1.0019722 10.429443c0.8846359 3.2660522 2.2205963 5.820801 4.007908 7.6642456c0.99295044 1.9837036 2.5997162 4.147705 4.8203125 6.4920654c2.2205963 2.3243408 4.5765915 4.4382935 7.0679855 6.341797c2.4914017 1.9035645 4.6217346 3.3562622 6.3909836 4.3580933c1.5706635 0.8616333 3.0420227 1.6630859 4.4141083 2.40448c1.3901215 0.7213745 2.9156418 1.5128174 4.5765915 2.3744507c2.1122742 2.224121 3.6377945 3.8270874 4.5765915 4.80896c0.938797 0.9818115 1.633873 1.7832642 2.0851898 2.404419c0.45135498 0.6211548 0.8394928 1.4226685 1.1644592 2.40448c1.8775711 3.2059937 2.2927933 5.820862 1.245697 7.8446045c-1.0471115 2.0238037 -3.6287766 3.9674072 -7.744995 5.8308716c-3.9898453 1.9636841 -8.178291 3.0356445 -12.565315 3.2160034c-0.47951508 0.01977539 -0.9538193 0.029663086 -1.4229126 0.029663086c-3.8047714 0 -7.2661514 -0.651062 -10.384155 -1.9532471c-3.484352 -1.4827881 -5.9486732 -3.6367798 -7.392952 -6.462036c-0.8846359 -2.1039429 -1.633873 -3.3362427 -2.2476768 -3.6968994c-0.17150116 -0.10638428 -0.36627197 -0.1595459 -0.58429337 -0.1595459c-0.5622597 0 -1.2792053 0.35375977 -2.1508293 1.0612183c-1.2276382 0.6211548 -1.8685493 1.1521606 -1.9227104 1.5929565c-0.05416107 0.4208374 0.30690384 1.5529175 1.0832176 3.3963623c0.43328476 1.1220703 1.0922356 2.4846191 1.9768715 4.0875854c0.9026718 1.5829468 2.0400505 3.2059937 3.4121323 4.8690796c1.3901176 1.6630859 2.9246826 3.0456543 4.603668 4.147705c1.2096024 0.14025879 2.003952 0.4508667 2.3830795 0.93170166c0.39718628 0.50097656 0.48744965 1.052002 0.27080536 1.6530762c0 0 0.60478973 0.21044922 1.8143845 0.6312256c1.2276382 0.4407959 2.8434448 0.97180176 4.847397 1.5929565c1.0182419 0.048095703 2.0725784 0.072143555 3.1629868 0.072143555c1.6356735 0 3.3525848 -0.054138184 5.1507034 -0.16235352c2.99691 -0.18029785 5.7410507 -0.52093506 8.232452 -1.0218506c2.491394 -0.480896 4.1252365 -0.9718628 4.9015503 -1.4727783c0.7763214 -0.36065674 1.4713898 -0.7914429 2.0851974 -1.2924194c0.61383057 -0.48083496 1.5255432 -0.9116821 2.7351227 -1.2923584c0.07221985 0.0064697266 0.14531708 0.00970459 0.21926117 0.00970459c1.2942276 0 2.8550034 -0.99505615 4.6822968 -2.9852295c1.949791 -2.0839233 3.312828 -4.107666 4.089142 -6.07135c0.45134735 -1.6029663 0.64993286 -3.3862915 0.5957718 -5.3499146c-0.05416107 -1.9636841 -0.38814545 -4.017517 -1.001976 -6.161499c-0.6138382 -2.1640015 -1.5887299 -4.2979736 -2.9246902 -6.4019165c-0.66799164 -1.6029663 -1.9768677 -3.4464111 -3.9266586 -5.5302734c-1.9317322 -2.1038818 -4.3960495 -4.287964 -7.3929596 -6.552185c-2.9788437 -2.2842407 -6.3548813 -4.598572 -10.128075 -6.942932c-4.3328705 -2.8252563 -7.9435806 -5.770752 -10.832169 -8.836426c-2.8705215 -3.0857544 -4.5856094 -5.6204834 -5.145279 -7.604187c-0.7763138 -1.963623 -0.7763138 -4.5684814 0 -7.814514c0.7763138 -3.2660522 2.1032562 -6.3217773 3.9808197 -9.167053c2.2205963 -4.187805 4.242607 -7.694336 6.066017 -10.519592c1.8414688 -2.8252563 3.8724976 -4.979248 6.093094 -6.462036c2.3289185 -1.1020508 3.6016922 -2.3342896 3.8183365 -3.6968384c0.10832214 -0.24047852 0.96588135 -0.94177246 2.5726395 -2.1039429c1.6067657 -1.18219 3.5746155 -2.574768 5.903534 -4.1777344c2.3289185 -1.6030273 4.657837 -3.195984 6.9867477 -4.7789307c2.3469849 -1.6029663 4.3509293 -2.8953857 6.011856 -3.8771973c1.6609268 -1.0018921 2.5997238 -1.5028076 2.8163605 -1.5028076c0.112846375 0.030090332 0.21157074 0.04510498 0.29619598 0.04510498c0.25387573 0 0.38082123 -0.1352539 0.38082123 -0.40576172c0 -0.36065674 0 -0.5410156 0 -0.5410156c0 -0.26049805 0.71310425 -0.60113525 2.139351 -1.0219116c1.4442825 -0.4407959 3.195488 -0.87158203 5.253601 -1.2924194c2.058113 -0.4407959 3.944725 -0.7814331 5.6598053 -1.0218506c0.8575592 -0.12023926 1.5842133 -0.18035889 2.1799774 -0.18035889c0.59576416 0 1.0606537 0.06011963 1.3946381 0.18035889c2.2205963 0.36065674 2.942749 2.2641602 2.1664429 5.7106323c-0.7763214 3.4464111 -2.942749 8.065002 -6.4993057 13.855774c-2.762207 3.4464111 -4.4502106 5.850891 -5.064041 7.213379c-0.61383057 1.3425293 -0.9207306 2.5147095 -0.9207306 3.5165405c-0.10832214 2.3243408 0.3610611 3.58667 1.4081802 3.7870483c0.115486145 0.019592285 0.24298096 0.02935791 0.38248444 0.02935791c1.1468735 0 3.1045685 -0.66101074 5.873085 -1.9829712c2.762207 -1.7232056 5.334854 -4.277954 7.717926 -7.6642456c2.4011383 -3.3862915 4.2065125 -7.0130615 5.416092 -10.880249c1.2276306 -3.887268 1.4532928 -7.303589 0.67700195 -10.249084c-0.34303284 -2.9655151 -1.2637634 -5.4902344 -2.762207 -7.5740967c-1.4984283 -2.1038818 -3.3850403 -3.797058 -5.6598053 -5.079468c-2.2566833 -1.3024292 -4.7751617 -2.013733 -7.555435 -2.1339722zm42.519043 57.076233c-2.274765 0 -4.305786 0.24041748 -6.093094 0.7213135c-0.43328857 0 -1.0380859 0.19036865 -1.8143921 0.57110596c-0.7763214 0.36065674 -1.6067963 0.8515625 -2.491394 1.4727173c-0.90267944 0.480896 -1.7963257 0.94177246 -2.6809692 1.3825684c-0.8846283 0.42077637 -1.7692719 0.94177246 -2.653885 1.5629272c-1.4442749 0.9818115 -3.3308868 2.4645996 -5.6598053 4.448242c-2.3289185 1.9636841 -4.549515 4.057556 -6.6617737 6.2817383c-2.094223 2.2041016 -3.5926666 4.1677246 -4.4953613 5.89093c-2.20253 3.4464111 -4.2516174 7.083191 -6.1472473 10.910339c-1.8775787 3.8070679 -2.8163757 6.692444 -2.8163757 8.656067c0 1.9837036 0.49647522 3.9874268 1.4894257 6.0111694c0.9929657 2.0238037 2.265747 3.71698 3.818344 5.079468c1.552597 1.3425293 3.0510406 2.013733 4.495346 2.013733c1.8956299 0 4.170395 -0.5810547 6.8242645 -1.7432251c2.6719513 -1.1621704 6.6076355 -3.0957642 11.807068 -5.8007812c0.10832214 0.480896 0.10832214 1.2523193 0 2.31427c-0.10832214 1.0419922 -0.44230652 2.053833 -1.0019684 3.0357056c-1.9859009 6.512085 -3.7009735 13.06427 -5.145279 19.656555c-1.4442902 6.592285 -2.4191895 12.623474 -2.9246979 18.093689c-0.48744202 5.4901733 -0.45133972 9.888367 0.10832214 13.194519c0.5416107 2.4645996 1.0922394 4.157776 1.6519165 5.079468c0.55966187 0.94177246 1.4984589 1.9035645 2.8163605 2.885376c1.2335052 0.67755127 2.3036346 1.0163574 3.2103577 1.0163574c0.4071045 0 0.7812805 -0.06829834 1.1225128 -0.20489502c1.1193085 -0.42077637 1.4532928 -1.3724976 1.0019684 -2.8552856c-0.8846283 -1.4827881 -1.3269348 -4.2579346 -1.3269348 -8.3255005c0 -4.0474854 0.44230652 -8.776306 1.3269348 -14.186401c0.66799927 -3.3261719 1.4172363 -6.8727417 2.2476807 -10.6397705c0.83047485 -3.7470093 1.6338654 -7.1833496 2.4101562 -10.309204c0.77630615 -3.145813 1.2727814 -5.339905 1.4894257 -6.5822144c0.34301758 -0.74139404 0.95684814 -2.184082 1.8414612 -4.328064c0.88464355 -2.1640625 1.8505096 -4.538452 2.8976135 -7.123291c1.065155 -2.5847778 1.8775635 -4.67865 2.4372253 -6.2816772c0 -0.480896 0.577713 -2.1339722 1.7331543 -4.9592285c1.1734772 -2.8452759 2.6448364 -5.7406616 4.4141083 -8.686157c1.552597 -3.7069092 2.6268005 -6.421936 3.2225647 -8.145142c0.61383057 -1.7232056 0.9748993 -3.105774 1.0832214 -4.147705c0.12638855 -1.0419922 0.18955994 -2.184082 0.18955994 -3.4263916c-0.45133972 -2.4645996 -1.2908325 -4.79895 -2.5184784 -7.0030518c-1.2095947 -2.224121 -2.482376 -3.8270874 -3.8183289 -4.80896c-1.3179321 -0.480896 -3.1142578 -0.7213135 -5.3890076 -0.7213135z" fill-rule="evenodd"/><path fill="#d3dae2" d="m208.31578 813.80774c-0.66007996 0 -1.3836365 0.14093018 -2.1706543 0.42266846c-0.32496643 0.5009155 -1.1012878 1.9536743 -2.3289185 4.3580933c-1.20961 2.40448 -2.9788513 6.1314087 -5.30777 11.180847c-2.7802582 6.8928223 -4.6127167 12.403076 -5.4973297 16.530762c-0.8846283 4.107605 -1.435257 8.31543 -1.6519012 12.623474c-0.667984 3.4464111 -0.6409149 6.161438 0.08123779 8.145142c0.7221527 1.9636841 1.967865 3.7470093 3.7371063 5.3499756c1.9528503 2.7232056 4.0214386 4.084778 6.20578 4.084778c0.17831421 0 0.35740662 -0.009094238 0.5372467 -0.02722168c2.383072 -0.24047852 5.4070587 -1.6530762 9.071945 -4.237915c1.552597 -0.86157227 3.105194 -2.0037231 4.6578217 -3.4263306c1.5526123 -1.4226685 2.5455627 -2.3744507 2.9788513 -2.8553467c0.667984 -0.6211548 1.3630676 -1.3925781 2.0851898 -2.314331c0.7221527 -0.9216919 1.245697 -1.8133545 1.5706635 -2.6749268c0.10832214 0.741333 0.1354065 1.9736328 0.08123779 3.6968384c-0.054153442 1.7232056 0.036102295 3.0757446 0.270813 4.057556c0.64993286 2.8252563 1.5255127 5.3198853 2.6268005 7.4839478c1.1193085 2.143982 2.2386322 3.8371582 3.3579712 5.079468c1.1012726 0.86157227 2.3199005 1.2923584 3.6558533 1.2923584c1.335968 0 2.5274963 -0.3406372 3.5746155 -1.0218506c1.0471191 -0.6812744 1.688034 -1.572937 1.9227142 -2.6749878c0.10832214 -1.4827881 0.07221985 -2.7752075 -0.10832214 -3.8772583c-0.16249084 -1.1020508 -0.84851074 -2.0838623 -2.0581207 -2.9454346c-1.6609192 -1.6030273 -2.8795319 -3.3863525 -3.6558533 -5.3499756c-0.77630615 -1.9837036 -1.1644592 -4.0875854 -1.1644592 -6.3117676c0.10832214 -2.444519 0.5235443 -4.9592285 1.245697 -7.5440063c0.72216797 -2.5848389 2.1303406 -6.4019165 4.2245483 -11.451294c2.5636292 -6.652405 4.116226 -11.8220215 4.657837 -15.508911c0.5596771 -3.7068481 0.2347107 -6.111328 -0.9748993 -7.213379c-0.55966187 -0.50097656 -0.92977905 -1.0820312 -1.1102905 -1.7432861c-0.13812256 -0.5790405 -0.37408447 -0.8685913 -0.7078247 -0.8685913c-0.058898926 0 -0.12083435 0.009033203 -0.18583679 0.027038574l-2.6538696 0.18035889c-0.12332153 -0.32635498 -0.32139587 -0.489563 -0.5942383 -0.489563c-0.24642944 0 -0.5538635 0.13311768 -0.9222717 0.39941406c-0.7763214 0.56103516 -1.3811035 1.1420898 -1.8143921 1.7432251c-1.3359528 0.86157227 -2.20253 1.8834839 -2.5997162 3.0656738c-0.37911987 1.1621704 -0.46037292 2.4846191 -0.24372864 3.9674072c-0.10832214 2.3443604 -0.38813782 4.4683228 -0.8394928 6.371826c-0.43328857 1.9035645 -1.0922241 4.0876465 -1.9768677 6.552246c-2.9969025 7.994873 -6.075058 13.965942 -9.234421 17.91333c-3.1593933 3.9273071 -5.99382 6.3918457 -8.50325 7.393738c-1.526001 0.6013794 -2.7709045 0.9020386 -3.734726 0.9020386c-0.60975647 0 -1.1070099 -0.12036133 -1.491806 -0.36102295c-1.552597 -0.6211548 -2.2205963 -2.40448 -2.003952 -5.3499756c0.21664429 -2.9655151 0.96588135 -6.5321655 2.2476807 -10.69989c1.2817993 -4.187805 2.6990051 -8.37561 4.2516327 -12.563416c1.9858856 -4.3079834 3.3940582 -7.9347534 4.224533 -10.880249c0.84851074 -2.9655151 0.93878174 -5.069397 0.270813 -6.3117065c-0.2347107 -1.7232056 -0.9026947 -2.9154053 -2.003952 -3.5766602c-0.5850525 -0.36193848 -1.2516174 -0.5429077 -1.9997253 -0.5429077z" fill-rule="evenodd"/><path fill="#d3dae2" d="m286.17532 822.19525c0.77630615 0.12023926 1.6609192 0.9517822 2.6539001 2.494629c1.0109863 1.5228271 1.742157 2.9655151 2.193512 4.328064c-0.45135498 2.224121 -1.1825256 4.5684814 -2.193512 7.033081c-0.99295044 2.444519 -2.4282227 5.0894775 -4.305786 7.9347534c-1.5526428 2.4645996 -3.4933777 5.1395874 -5.822296 8.024963c-2.3289185 2.885376 -4.7120056 5.5302734 -7.149231 7.9347534c-2.4372559 2.40448 -4.603668 4.2178345 -6.499298 5.4401245c-1.5731201 1.0408325 -2.8040466 1.5612793 -3.69281 1.5612793c-0.17199707 0 -0.33120728 -0.01953125 -0.4776001 -0.05847168c-0.88461304 -0.26049805 -1.4081726 -0.8215332 -1.5706482 -1.6831665c-0.16247559 -0.86157227 -0.24371338 -1.6630859 -0.24371338 -2.40448c0 -0.741333 0.44229126 -2.2441406 1.3269348 -4.508362c0.88461304 -2.2842407 1.7963257 -4.5584717 2.7351074 -6.822693c0.95684814 -2.2842407 1.5977478 -3.67688 1.9227295 -4.1777954c0.21664429 -0.36065674 0.68603516 -1.1220703 1.4081726 -2.2842407c0.72213745 -1.18219 1.471344 -2.44458 2.2476807 -3.7870483c0.77630615 -1.3625488 1.3901062 -2.35437 1.8414612 -2.975525c2.5455627 -3.9273071 5.1723633 -7.5841064 7.8804016 -10.970398c2.7261047 -3.3863525 5.30777 -5.079468 7.744995 -5.079468zm-1.5724487 -11.106812c-0.19711304 0 -0.39511108 0.0053710938 -0.5939636 0.016174316c-2.2025452 0.12023926 -4.080139 1.0419312 -5.6327515 2.7651367c-2.4552917 1.6029663 -5.154297 4.1276855 -8.097046 7.5740967c-2.9246826 3.4464111 -5.722992 7.3236084 -8.394928 11.631653c-2.6538696 4.3079834 -4.9015503 8.525879 -6.7430115 12.653503c-1.8234253 4.1276855 -2.8976135 7.7244263 -3.22258 10.7901c-1.0110016 4.448303 -1.5164948 7.684326 -1.5164948 9.708069c0 2.0237427 0.50549316 3.8972778 1.5164948 5.6204834c0.99295044 0.5009155 1.7331543 1.001831 2.2205963 1.5027466c0.50549316 0.480896 0.758255 0.7213745 0.758255 0.7213745c0.55966187 0 0.8394928 0.31054688 0.8394928 0.93170166c0 0.36071777 0.5235596 0.701355 1.5706482 1.0219116c1.0651855 0.30059814 2.3108826 0.480896 3.7371216 0.5410156c0.28884888 0.012023926 0.566864 0.018066406 0.8340759 0.018066406c1.0687561 0 1.9642334 -0.096191406 2.6863708 -0.28857422c2.5455627 -1.1020508 4.567566 -2.2041016 6.0660095 -3.3061523c1.4984436 -1.1220703 2.5275269 -2.2341309 3.0871582 -3.3361816c0.3249817 -0.6211548 1.1825256 -1.6330566 2.5726624 -3.0356445c1.3901367 -1.4226685 2.7983093 -2.9956055 4.2245483 -4.718811l7.1763 -7.5740967l1.0019836 4.237915c0.64993286 2.224121 1.3901367 4.538452 2.220581 6.942932c0.84854126 2.3843994 1.8234253 4.408203 2.9246826 6.071289c1.1012878 1.6630859 2.265747 2.494629 3.4933777 2.494629c1.6609497 0 3.4031067 -0.5209961 5.226532 -1.5629272c1.8414612 -1.0419312 3.3940735 -2.3343506 4.657837 -3.8771973c1.2817993 -1.5429077 1.922699 -3.055725 1.922699 -4.538452c0 -1.4627075 -0.36108398 -2.5647583 -1.0832214 -3.3061523c-0.72213745 -0.74139404 -1.6970215 -1.1421509 -2.9246826 -1.2022095c-0.09072876 -0.0045166016 -0.18179321 -0.0067749023 -0.27322388 -0.0067749023c-1.1276245 0 -2.3093262 0.3428955 -3.545105 1.0286255c-0.666626 0.40270996 -1.2563171 0.60406494 -1.7691345 0.60406494c-0.5843506 0 -1.0688171 -0.2614746 -1.4534302 -0.7843628c-0.72216797 -1.0018921 -0.97491455 -2.664978 -0.75827026 -4.989319c0 -2.3443604 0.1895752 -5.119507 0.56869507 -8.3255005c0.39718628 -3.2059326 0.87557983 -5.9109497 1.4352722 -8.115051c0.32495117 -2.9655151 0.51452637 -5.1796265 0.56866455 -6.642395c0.0541687 -1.482727 0.0541687 -2.7451172 0 -3.7870483c-0.054138184 -1.0619507 -0.24371338 -2.2642212 -0.56866455 -3.6066895c-0.66799927 -1.6029663 -1.5074768 -3.2059937 -2.5184937 -4.80896c-0.99295044 -1.6029663 -2.0490723 -3.0756836 -3.168396 -4.418213c-1.1012878 -1.3625488 -2.2025452 -2.35437 -3.303833 -2.975525c-1.8244934 -1.112854 -3.7387695 -1.6692505 -5.7428284 -1.6692505z" fill-rule="evenodd"/><path fill="#d3dae2" d="m456.77728 827.71515c3.0323792 0 5.127014 0.9251709 6.2838135 2.7755127c1.1012878 0.8616333 0.87561035 2.6148682 -0.67700195 5.2598267c-1.5526123 2.6448975 -3.5475464 5.510254 -5.9847717 8.595947c-1.6609497 1.6030273 -3.7732239 3.1759644 -6.3368225 4.718811c-2.5455627 1.5228271 -5.127228 2.8753662 -7.744995 4.057556c-2.5997314 1.1621704 -4.8203125 1.9035034 -6.661804 2.224121c-0.52597046 0.08673096 -0.989624 0.13006592 -1.3908997 0.13006592c-0.98986816 0 -1.6004333 -0.26379395 -1.831665 -0.7913208c-0.108306885 -0.5009155 0 -1.4226074 0.3249817 -2.7651367c0.34301758 -1.3625488 1.0109863 -3.3963013 2.0039368 -6.1013184c0.99295044 -2.4645996 1.8234253 -4.5584717 2.491394 -6.2816772c0.66799927 -1.7232666 1.4713745 -3.1658936 2.4101562 -4.328064c0.95684814 -1.182251 2.374054 -2.1339722 4.251648 -2.8553467c4.874481 -2.9655151 8.972626 -4.508362 12.294495 -4.628601c0.19268799 -0.006958008 0.38186646 -0.010375977 0.5675354 -0.010375977zm-119.04123 -16.400513c-1.430603 0 -3.0305176 0.30065918 -4.7998047 0.9020386c-0.43325806 0.12023926 -1.0741577 0.3706665 -1.922699 0.7514038c-0.83044434 0.36065674 -1.8504944 0.97180176 -3.060089 1.833374c-0.45132446 0.36071777 -1.065155 0.701355 -1.8414612 1.0219116c-0.77630615 0.30059814 -1.6067505 0.88165283 -2.491394 1.7432861c-0.77630615 0.741333 -1.2186279 1.4226074 -1.3269348 2.0437622c-0.1083374 0.60113525 0.054138184 1.5829468 0.48742676 2.9454956c1.1193237 2.9454956 2.1213074 4.5184326 3.0059204 4.718811c0.07443237 0.015136719 0.15472412 0.022705078 0.24087524 0.022705078c0.9381714 0 2.5729675 -0.89923096 4.904419 -2.6976929c0.66796875 -0.50097656 1.4172058 -0.90167236 2.2476807 -1.2022705c0.83044434 -0.32055664 1.471344 -0.5410156 1.922699 -0.66119385c0 0 0.270813 -0.12023926 0.81240845 -0.36071777c0.16537476 -0.0769043 0.32598877 -0.11541748 0.48190308 -0.11541748c0.37173462 0 0.71661377 0.21881104 1.0346069 0.6564331c0.21664429 1.2423096 0.0993042 2.755127 -0.35205078 4.538452c-0.43328857 1.7833252 -1.0922241 3.536621 -1.9768677 5.2598267c-0.32495117 0.36065674 -0.79437256 1.1320801 -1.4081726 2.31427c-0.61383057 1.1621704 -0.92074585 1.7432251 -0.92074585 1.7432251c0.21664429 0 0.2437439 0.3406372 0.08123779 1.0219116c-0.16247559 0.6812744 -0.5235596 1.2022705 -1.0831909 1.5629272c-0.99295044 1.8434448 -2.2386475 4.3380737 -3.7371216 7.4839478c-1.4984436 3.145813 -2.942749 6.381836 -4.332855 9.708008c-1.3901367 3.3061523 -2.5004272 6.2216187 -3.330902 8.746277c-0.83044434 2.5247192 -1.0741882 3.977417 -0.73117065 4.3581543c0.43328857 0 0.67700195 0.19036865 0.73117065 0.5710449c0.0541687 0.36065674 0.08123779 0.6612549 0.08123779 0.90167236c0 0.480896 0.1354065 1.092041 0.40621948 1.833435c0.28884888 0.741333 0.59576416 1.3624878 0.92074585 1.8634644c0.7487488 1.0510254 1.504242 1.5765381 2.266449 1.5765381c0.4874878 0 0.97769165 -0.21496582 1.4706421 -0.6448364c1.2817993 -1.1220703 3.5385132 -4.2078247 6.770111 -9.257202c2.5455322 -3.8070679 5.1994324 -7.433838 7.9616394 -10.880249c2.780243 -3.4464111 5.334839 -6.522156 7.6637573 -9.227173c2.3289185 -2.7250366 3.9898376 -4.75885 4.982788 -6.1013794c2.2206116 -2.1038818 4.161377 -3.8571777 5.822296 -5.2597656c1.2417603 -1.052185 2.0243225 -1.5782471 2.3476868 -1.5782471c0.113861084 0 0.17077637 0.06524658 0.17077637 0.19567871c0 0 -0.47839355 1.6931763 -1.4352417 5.079468c-0.93878174 3.366272 -2.0130005 7.1432495 -3.2225647 11.331055c-1.1193237 3.8271484 -1.9859009 6.7926636 -2.5997314 8.896545c-0.59576416 2.0839233 -0.98391724 3.6467896 -1.1644592 4.6887207c-0.16247559 1.0419922 -0.1895752 1.8434448 -0.08123779 2.40448c0.108306885 0.5410156 0.33398438 1.182251 0.67700195 1.923584c0.88461304 1.6030273 1.8504944 2.7752075 2.8976135 3.5165405c0.45828247 0.31896973 0.889801 0.4784546 1.2945862 0.4784546c0.5361023 0 1.0252991 -0.27972412 1.4676208 -0.8391113c0.32495117 -0.24041748 0.87557983 -1.3424683 1.651886 -3.3061523c0.77630615 -1.9837036 1.6609497 -3.6567993 2.6539001 -5.019348c1.335968 -2.3243408 3.060089 -4.9592285 5.1723633 -7.904663c2.1122742 -2.9655151 4.242584 -5.8008423 6.3909607 -8.505859c2.1664429 -2.7250366 4.0530396 -4.979248 5.6598206 -6.7625732c1.606781 -1.7833252 2.6358337 -2.6749878 3.0871582 -2.6749878c0.3249817 0 0.48745728 0.7113037 0.48745728 2.1339722c0 1.4025879 0 2.2942505 0 2.6749878c-0.3249817 0.74139404 -0.54159546 2.0337524 -0.64993286 3.8771973c-0.108306885 1.8434448 -0.38815308 3.8771973 -0.83947754 6.1013794c-0.43328857 3.0656738 -0.48745728 6.111328 -0.1625061 9.136963c0.3249817 3.0056152 0.71313477 5.1896973 1.1644592 6.552185c0.66799927 2.7050781 2.1393738 4.4282837 4.4141235 5.1696167c1.5029602 0.48986816 2.7497864 0.73480225 3.7404785 0.73480225c0.508728 0 0.94992065 -0.064575195 1.3235474 -0.19378662c0.77630615 0 1.4713745 -0.15026855 2.085205 -0.45080566c0.61383057 -0.30059814 1.1373596 -0.4508667 1.5706482 -0.4508667c0.90267944 0 1.7060852 -0.3706665 2.4101562 -1.1120605c0.72216797 -0.74139404 1.4713745 -1.5428467 2.2476807 -2.40448c0.55966187 -0.38067627 1.0561523 -0.90167236 1.4894409 -1.5628662c0.45132446 -0.6812744 0.84851074 -1.0219116 1.1915283 -1.0219116c0.54159546 0 1.3901367 -0.8015137 2.5455627 -2.40448c1.1734924 -1.6030273 2.2296143 -3.2661133 3.168396 -4.989319c0.95684814 -1.7232056 1.3269348 -2.8252563 1.1102905 -3.3061523c-0.32965088 -1.4249878 -1.0928345 -2.1374512 -2.2895508 -2.1374512c-0.04849243 0 -0.0977478 0.001159668 -0.14767456 0.003479004c-1.2637634 0.06011963 -2.7261047 0.9517822 -4.387024 2.6749878c-1.335968 1.3625488 -3.3670044 2.755127 -6.093109 4.1777954c-2.7080383 1.4025879 -4.8383484 2.2842407 -6.3909607 2.6448975c-0.77630615 0 -1.2186279 -0.2705078 -1.3269348 -0.81152344c-0.1083374 -0.56103516 -0.1625061 -1.6430054 -0.1625061 -3.2460327c0 -0.9818115 0.02709961 -2.0237427 0.08123779 -3.1257935c0.0541687 -1.1220703 0.2979126 -2.1740723 0.73117065 -3.1558838c0.2347107 -1.963623 0.40621948 -3.496521 0.5145569 -4.598572c0.108306885 -1.1220703 0.24371338 -2.2041016 0.40618896 -3.2460327c0.16247559 -1.0419312 0.36108398 -2.4846191 0.59576416 -4.328064c0 -2.224121 -0.06317139 -3.887207 -0.18954468 -4.989258c-0.1083374 -1.1020508 -0.55062866 -2.3944702 -1.3269653 -3.8771973c-1.1012573 -2.5848389 -2.4281921 -4.147705 -3.9808044 -4.6887207c-0.6123047 -0.22125244 -1.2512817 -0.33190918 -1.9169006 -0.33190918c-1.0222473 0 -2.1073914 0.2609253 -3.2554626 0.78271484c-0.21664429 0.480896 -0.65896606 0.94177246 -1.3269348 1.3825684c-0.66799927 0.42077637 -1.2727966 0.88165283 -1.8143921 1.3825684c0 0.36071777 -0.11734009 0.57110596 -0.35205078 0.6312256c-0.21664429 0.060058594 -0.32495117 0.090148926 -0.32495117 0.090148926c0 0 -0.22567749 0.070129395 -0.6770325 0.21038818c-0.43328857 0.12023926 -0.75823975 0.611145 -0.97488403 1.4727173c-0.55966187 0.480896 -1.2005615 1.092041 -1.922699 1.833435c-0.72216797 0.74139404 -1.4172363 1.6029663 -2.085205 2.5847778l-5.9847717 8.115112l3.4933777 -9.948486c0 -4.3080444 -0.80340576 -7.814575 -2.4101562 -10.519592c-1.2207947 -2.0704346 -2.712555 -3.1056519 -4.4752502 -3.1056519c-0.5573425 0 -1.1417542 0.10345459 -1.7532654 0.31048584c-1.0109863 0 -2.1212769 0.49090576 -3.3308716 1.4727173c-1.787323 1.6029663 -3.321869 2.9955444 -4.603668 4.1777954c-1.2637634 1.1621094 -2.1213074 1.7432251 -2.5726624 1.7432251c0 0 -0.19857788 0.19036865 -0.59576416 0.5710449c-0.37911987 0.36065674 -0.73117065 0.7213745 -1.0561218 1.0820312c0 0.86157227 -0.1444397 1.3624878 -0.43328857 1.5028076c-0.270813 0.12017822 -0.40621948 0.18029785 -0.40621948 0.18029785c-0.32495117 0 -0.99295044 0.49090576 -2.0039368 1.4727783c-0.99295044 0.9818115 -1.6519165 1.7131958 -1.9768677 2.1940308c-0.55966187 0.8616333 -1.0380859 1.2924194 -1.4352722 1.2924194c-0.37911987 0 -0.28884888 -0.611145 0.270813 -1.833374l1.651886 -2.7651367c1.5526123 -3.4464111 2.3289185 -6.4921265 2.3289185 -9.137024c0 -2.6449585 -0.77630615 -5.019348 -2.3289185 -7.123291c-0.9929199 -2.5847778 -2.491394 -4.1777344 -4.495331 -4.7788696c-0.76953125 -0.24066162 -1.606842 -0.36102295 -2.5119324 -0.36102295zm105.02533 -8.332336c-0.37997437 0 -0.7716675 0.0625 -1.1750488 0.18756104c-0.3249817 0.12017822 -0.76727295 0.4006958 -1.3269348 0.84155273c-0.55966187 0.42077637 -1.0922546 0.9116821 -1.5977478 1.4727173c-0.48745728 0.5410156 -0.83950806 1.18219 -1.0561523 1.923584c-0.12637329 0.5009155 -0.55062866 1.7633057 -1.2727661 3.7870483c-0.70410156 2.0237427 -1.5616455 4.638611 -2.5726318 7.8446045c-0.99295044 3.2059937 -2.265747 6.8728027 -3.8183594 11.000488c-1.5526123 4.1276855 -3.051056 8.225281 -4.495331 12.292847c-1.4443054 4.0475464 -2.6087646 7.6742554 -3.4933777 10.880249c-1.2276611 5.0493774 -2.4823914 9.327393 -3.7641907 12.833862c-1.2637634 3.5065308 -2.0039368 5.5703735 -2.220581 6.1915283c-1.2276611 3.5666504 -2.4282227 7.654236 -3.601715 12.262817c-1.155426 4.628601 -2.2025452 9.187134 -3.141327 13.675476c-0.93878174 4.4883423 -1.6880188 8.29541 -2.2476807 11.421265c-0.55966187 3.145813 -0.83947754 5.0894165 -0.83947754 5.8308105c0 0.74139404 0.27981567 1.6330566 0.83947754 2.6749878c0.55966187 1.0620117 1.2818298 2.0238037 2.1664429 2.885376c0.88464355 0.86157227 1.7150879 1.4727173 2.491394 1.833435c0.21664429 -0.24047852 0.48745728 -0.7614746 0.81240845 -1.5629272c0.34301758 -0.8015137 0.87561035 -2.2542114 1.5977478 -4.3580933c0.72213745 -2.0839233 1.7512207 -5.249817 3.0871887 -9.497681c1.335968 -4.247925 3.051056 -9.938538 5.1452637 -17.071777c1.5526123 -6.5321655 3.051056 -12.252808 4.4953613 -17.161926c1.4442749 -4.929199 2.220581 -7.524048 2.3289185 -7.784485c0 -0.480896 0.21664429 -0.7213745 0.64993286 -0.7213745c0.45132446 0 1.2908325 0.12023926 2.5184631 0.36071777c0.6260681 0.40393066 1.4693298 0.60595703 2.5298157 0.60595703c0.2545166 0 0.5215454 -0.011657715 0.8010864 -0.03491211c1.4442749 -0.14025879 2.5545654 -0.2705078 3.3308716 -0.39074707c2.2206116 -0.36065674 4.8203125 -1.092041 7.799164 -2.1940918c2.9969177 -1.1220703 5.6598206 -2.3243408 7.988739 -3.6066895c2.3289185 -1.3024292 3.556549 -2.2642212 3.6829224 -2.885376c0 0 0.44232178 -0.2705078 1.3269653 -0.81152344c0.88461304 -0.56103516 1.8775635 -1.0819702 2.9788208 -1.5628662c1.6609497 -1.2423706 3.240631 -2.8152466 4.7390747 -4.718811c1.4984741 -1.9035645 2.7170715 -4.027466 3.6558533 -6.371826c0.95684814 -2.3443604 1.6248474 -4.7088013 2.0039673 -7.0932007c0.39718628 -2.40448 0.37008667 -4.6586914 -0.08123779 -6.7626343c-0.1083374 -0.9818115 -0.55062866 -1.9936523 -1.3269348 -3.0356445c-0.77630615 -1.0419312 -1.4443054 -1.8734741 -2.0039673 -2.494629c-0.77630615 -1.6029663 -1.6880188 -2.8953857 -2.7351074 -3.8771973c-1.0471191 -0.9818115 -2.9066467 -1.5429077 -5.578583 -1.6831665c-0.66796875 -0.24041748 -1.7241211 -0.36065674 -3.168396 -0.36065674c-1.426239 0 -2.8885803 -0.030029297 -4.387024 -0.090148926c-1.4984741 -0.06011963 -2.7531738 -0.090148926 -3.7641907 -0.090148926l-5.9847717 1.4727173l1.1644592 -3.6968994c0.88461304 -2.2041016 1.4894104 -4.0474854 1.8143921 -5.5302734c0.34301758 -1.482727 0.23468018 -2.7751465 -0.3249817 -3.8771973c-1.1391296 -1.9685059 -2.4625244 -2.9526978 -3.9702148 -2.9526978z" fill-rule="evenodd"/><path fill="#d3dae2" d="m543.3846 821.3888c0.94781494 0 1.7932129 0.4491577 2.536255 1.3474731c0.43328857 0.5009155 0.7312012 1.4326172 0.89367676 2.795166c0.18054199 1.3425293 0.04510498 2.6849976 -0.40625 4.027527c-2.0039062 3.3261719 -3.6738892 5.5803833 -5.0098267 6.7625732c-1.3179321 1.1621704 -2.6990356 1.8734741 -4.1433105 2.1339722c-1.4442749 0.24041748 -3.3850708 0.66119385 -5.8223267 1.2623291c-0.55963135 0 -1.5886841 -0.06011963 -3.0871582 -0.18029785c-1.4984131 -0.12023926 -2.13031 -0.43084717 -1.8956299 -0.9317627c-0.45135498 -0.24041748 -0.23468018 -1.092041 0.6499634 -2.5547485c0.8845825 -1.4827881 2.0490723 -3.1157837 3.4933472 -4.899109c1.4442749 -1.7833252 2.9156494 -3.3863525 4.4141235 -4.80896c1.4984131 -1.4226685 2.6358032 -2.314331 3.4121094 -2.6749878c1.2276611 -0.9818115 2.5275269 -1.6831055 3.8995972 -2.1038818c0.36846924 -0.116882324 0.7236328 -0.17529297 1.0654297 -0.17529297zm-0.77056885 -9.412598c-0.6779785 0 -1.4442749 0.080200195 -2.2988281 0.24047852c-1.2637329 0.24041748 -2.4552612 0.5510254 -3.574585 0.93170166c-1.1013184 0.36071777 -1.9317627 0.6612549 -2.491394 0.9017334c-1.2095947 0.741333 -2.7351685 1.9436035 -4.576599 3.6066895c-1.8234253 1.6630859 -3.6558838 3.4865112 -5.4973145 5.470154c-1.8234253 1.9636841 -3.2857666 3.9273071 -4.387024 5.890991c-1.1193848 2.4645996 -2.175476 4.0375366 -3.168457 4.71875c-0.43115234 0.28710938 -0.81121826 0.4307251 -1.1402588 0.4307251c-0.42871094 0 -0.770813 -0.24377441 -1.0261841 -0.7312622c0 -0.480896 -0.27978516 -0.7814331 -0.83947754 -0.90167236c-0.541626 -0.12023926 -1.0380859 -0.18035889 -1.4894409 -0.18035889c-0.21661377 -0.13024902 -0.44229126 -0.19537354 -0.67697144 -0.19537354c-0.2347107 0 -0.47842407 0.06512451 -0.73117065 0.19537354c-0.5055237 0.24047852 -0.97491455 0.36071777 -1.4082031 0.36071777c-0.45132446 0 -0.78530884 0.52093506 -1.0019531 1.5628662c-0.21664429 1.0419312 -0.270813 1.9937134 -0.1625061 2.8553467c-0.108306885 0.6211548 0.2527771 1.3624878 1.0832214 2.224121c0.83047485 0.86157227 1.4082031 1.5428467 1.7331543 2.0438232c1.2276611 1.222229 1.8414917 2.4545288 1.8414917 3.6968384c0 1.22229 -0.1083374 3.7369385 -0.3250122 7.5440674c-0.77627563 7.393738 -0.53256226 12.843872 0.7312012 16.350403c1.2817993 3.5065308 4.080139 6.251648 8.394897 8.235352c2.5337524 1.045044 5.1567993 1.5675659 7.8690796 1.5675659c0.14794922 0 0.29614258 -0.0015869141 0.4446411 -0.004699707c2.8885498 -0.06011963 6.0028076 -1.0819702 9.342712 -3.0656738c1.1013184 -0.7213745 2.3469849 -1.7232056 3.7371216 -3.0056152c1.3901367 -1.3024292 2.6629028 -2.6048584 3.8183594 -3.9072266c1.1734619 -1.3024292 1.9226685 -2.3844604 2.2476807 -3.2460938c1.0109863 -2.3242798 1.5977173 -4.067566 1.7601929 -5.2297363c0.16247559 -1.18219 -0.37005615 -2.2041016 -1.5977173 -3.0656738c-0.8063965 -0.24047852 -1.5806885 -0.36065674 -2.322937 -0.36065674c-0.37109375 0 -0.73413086 0.030029297 -1.0892334 0.090148926c-1.0470581 0.18035889 -1.7963257 0.70129395 -2.2476196 1.5629272c-1.7692871 1.6029663 -3.6829834 3.6968384 -5.741089 6.2816772c-2.040039 2.5847778 -4.116211 4.187805 -6.2285156 4.80896c-1.0229492 0.34625244 -1.9526367 0.51934814 -2.7890015 0.51934814c-1.244873 0 -2.28302 -0.3834839 -3.114502 -1.1505127c-1.3901367 -1.3024292 -2.4733276 -2.3844604 -3.2496338 -3.2460938c-0.2166748 -0.5009155 -0.44232178 -1.3624878 -0.67700195 -2.5847778c-0.2166748 -1.2423096 -0.2076416 -3.2160034 0.027038574 -5.9210205c0.2166748 -3.4464111 0.541626 -6.0913086 0.97491455 -7.9347534c0.3579712 -1.4620361 0.81811523 -2.1930542 1.3804932 -2.1930542c0.14666748 0 0.300354 0.049743652 0.46099854 0.14923096c0.66796875 0.3807373 1.9678345 0.60113525 3.8995361 0.6612549c0.3899536 0.012023926 0.786438 0.018005371 1.1893921 0.018005371c1.6118164 0 3.3276367 -0.096191406 5.147461 -0.28851318c2.2747192 -0.26049805 4.1342773 -0.57110596 5.5785522 -0.9317627c1.6609497 -0.741333 3.484314 -1.9135132 5.470215 -3.5165405c2.0039673 -1.6029663 3.7822876 -3.2660522 5.3349 -4.989258c1.5525513 -1.7232056 2.5003662 -3.195984 2.8434448 -4.418213c0.77630615 -1.7232056 1.2727661 -3.62677 1.4893799 -5.7106323c0.2166748 -2.1039429 0.12640381 -4.0775757 -0.270813 -5.9210205c-0.37908936 -1.8634644 -1.2908325 -3.3462524 -2.7351074 -4.448303c-1.2095947 -1.482727 -2.5094604 -2.7751465 -3.8995972 -3.8771973c-1.3900757 -1.1020508 -3.0871582 -1.7131958 -5.0910645 -1.833435c-0.29492188 -0.040039062 -0.6118164 -0.06011963 -0.9508667 -0.06011963zm-26.653198 -51.09503c-0.45135498 0 -0.92974854 0.06011963 -1.4352417 0.18029785c-0.48742676 0.12023926 -0.89367676 0.37072754 -1.2186279 0.7514038c-0.90270996 0 -1.5796814 0.25048828 -2.0310364 0.7514038c-0.43328857 0.480896 -0.64993286 1.2122803 -0.64993286 2.1940918c0 0.6211548 -0.41522217 2.3743896 -1.245697 5.2597656c-0.83044434 2.885376 -1.9136658 6.421997 -3.2496338 10.609741c-1.3179321 4.187805 -2.7261047 8.43573 -4.2245483 12.743713c-1.4984436 4.3080444 -2.8885803 8.215332 -4.1703796 11.721863c-1.2818298 3.5064697 -2.3108826 6.0612793 -3.0871887 7.6642456c0 0.5009155 -0.1354065 1.001831 -0.40618896 1.5028076c-0.270813 0.480896 -0.40621948 0.97180176 -0.40621948 1.4727173c0 0.480896 -0.1444397 1.1220703 -0.43328857 1.923584c-0.270813 0.8015137 -0.40618896 1.5128174 -0.40618896 2.1339722c-0.45135498 0.480896 -0.87561035 1.3424683 -1.2727966 2.5847778c-0.37911987 1.22229 -0.56869507 2.3243408 -0.56869507 3.3061523c0 0.8616333 -0.16247559 1.7232666 -0.48742676 2.5848389c-0.3249817 0.86157227 -0.71313477 1.2924194 -1.1644592 1.2924194c-0.21664429 0.5009155 -0.68603516 1.7732544 -1.4082031 3.8170776c-0.72213745 2.0238037 -1.471344 4.328064 -2.2476501 6.912842c-0.77630615 2.5848389 -1.4984741 5.079468 -2.1664429 7.4839478c-0.66799927 2.3844604 -1.1102905 4.197815 -1.3269348 5.4401245c0 0.86157227 -0.17150879 2.0037231 -0.51452637 3.4263916c-0.3249817 1.4025879 -0.76730347 2.8452759 -1.3269653 4.328064c-0.88461304 4.548462 -1.2185974 8.485779 -1.0019531 11.811951c0.23468018 3.3261719 0.98391724 5.7907715 2.2476807 7.393738c0.9237976 1.1553345 2.063324 1.7329712 3.418518 1.7329712c0.5251465 0 1.0826721 -0.08673096 1.6725769 -0.26019287c0.88464355 -0.5009155 1.3811035 -1.2122803 1.4894409 -2.1339722c0.108306885 -0.9216919 0.16247559 -2.8553467 0.16247559 -5.8007812c0 -3.4464111 0.74923706 -7.994873 2.2476807 -13.645386c1.4984436 -5.6705933 3.1322937 -11.892151 4.9015503 -18.664734c1.787323 -5.3098755 2.6809692 -8.575989 2.6809692 -9.798279c0 0 0.027069092 -0.3406372 0.08123779 -1.0218506c0.0541687 -0.6812744 0.29788208 -1.0219116 0.73117065 -1.0219116c0.45132446 -0.480896 0.70410156 -0.961792 0.75823975 -1.442688c0.0541687 -0.5009155 0.08123779 -1.0018921 0.08123779 -1.5028076c0 -0.24047852 0.2798462 -1.1321411 0.83950806 -2.6749878c0.55966187 -1.5428467 1.2547302 -3.3862915 2.085205 -5.5302734c0.83044434 -2.1640625 1.6338196 -4.197815 2.4101562 -6.1013794c0.77627563 -1.9035034 1.381073 -3.3461914 1.8143616 -4.328064c0.45135498 -1.482727 0.86657715 -2.7150269 1.245697 -3.6968384c0.39718628 -0.98187256 0.5957947 -1.7232056 0.5957947 -2.2241821c0 -0.5009155 0.49645996 -1.8233643 1.4894104 -3.9673462c0.99295044 -2.1640625 1.9407349 -4.4783325 2.8434448 -6.942932c2.0942383 -4.9091187 3.6378174 -8.535889 4.6307373 -10.880249c1.0110474 -2.3443604 1.6790161 -4.1276855 2.0039673 -5.3499756c0.34301758 -1.2423096 0.51452637 -2.664917 0.51452637 -4.2678833c0 -1.4627686 -0.090270996 -2.7451172 -0.270813 -3.847168c-0.16247559 -1.1221313 -0.68603516 -2.1139526 -1.5706787 -2.975586c-0.8845825 -0.9818115 -1.5526123 -1.7131348 -2.0039062 -2.1940308c-0.43328857 -0.50097656 -0.6499634 -0.7514038 -0.6499634 -0.7514038z" fill-rule="evenodd"/><path fill="#d3dae2" d="m624.91144 811.31464c-1.430603 0 -3.0305786 0.30065918 -4.7998047 0.9020386c-0.43328857 0.12023926 -1.0742188 0.3706665 -1.9227295 0.7514038c-0.83044434 0.36065674 -1.8504639 0.97180176 -3.0600586 1.833374c-0.45135498 0.36071777 -1.0651855 0.701355 -1.8414917 1.0219116c-0.77630615 0.30059814 -1.6067505 0.88165283 -2.491394 1.7432861c-0.77630615 0.741333 -1.2186279 1.4226074 -1.3269653 2.0437622c-0.10827637 0.60113525 0.05419922 1.5829468 0.4874878 2.9454956c1.1193237 2.9454956 2.1212769 4.5184326 3.0059204 4.718811c0.074401855 0.015136719 0.15466309 0.022705078 0.24084473 0.022705078c0.9381714 0 2.572998 -0.89923096 4.904419 -2.6976929c0.66796875 -0.50097656 1.4172363 -0.90167236 2.2476807 -1.2022705c0.83044434 -0.32055664 1.4713745 -0.5410156 1.9227295 -0.66119385c0 0 0.270813 -0.12023926 0.8123779 -0.36071777c0.16534424 -0.0769043 0.32598877 -0.11541748 0.48187256 -0.11541748c0.37176514 0 0.7166748 0.21881104 1.034668 0.6564331c0.21661377 1.2423096 0.0993042 2.755127 -0.35205078 4.538452c-0.43328857 1.7833252 -1.0922852 3.536621 -1.9768677 5.2598267c-0.32495117 0.36065674 -0.79437256 1.1320801 -1.4082031 2.31427c-0.61383057 1.1621704 -0.92071533 1.7432251 -0.92071533 1.7432251c0.21661377 0 0.24371338 0.3406372 0.08123779 1.0219116c-0.16247559 0.6812744 -0.5235596 1.2022705 -1.083252 1.5629272c-0.9929199 1.8434448 -2.2385864 4.3380737 -3.7370605 7.4839478c-1.4984741 3.145813 -2.942749 6.381836 -4.3328857 9.708008c-1.3901367 3.3061523 -2.5004272 6.2216187 -3.3308716 8.746277c-0.83044434 2.5247192 -1.0742188 3.977417 -0.7312012 4.3581543c0.43328857 0 0.67700195 0.19036865 0.7312012 0.5710449c0.054138184 0.36065674 0.08123779 0.6612549 0.08123779 0.90167236c0 0.480896 0.13537598 1.092041 0.40618896 1.833435c0.2888794 0.741333 0.59576416 1.3624878 0.92071533 1.8634644c0.7487793 1.0510254 1.5042725 1.5765381 2.2664795 1.5765381c0.4874878 0 0.97772217 -0.21496582 1.4706421 -0.6448364c1.2817993 -1.1220703 3.5385132 -4.2078247 6.7700806 -9.257202c2.5455933 -3.8070679 5.199463 -7.433838 7.96167 -10.880249c2.7802734 -3.4464111 5.334839 -6.522156 7.6637573 -9.227173c2.3289185 -2.7250366 3.9898682 -4.75885 4.982788 -6.1013794c2.220581 -2.1038818 4.161377 -3.8571777 5.8223267 -5.2597656c1.2416992 -1.052185 2.024292 -1.5782471 2.3476562 -1.5782471c0.1138916 0 0.17077637 0.06524658 0.17077637 0.19567871c0 0 -0.47839355 1.6931763 -1.4352417 5.079468c-0.93878174 3.366272 -2.0129395 7.1432495 -3.2225952 11.331055c-1.1193237 3.8271484 -1.9859009 6.7926636 -2.5996704 8.896545c-0.59576416 2.0839233 -0.98394775 3.6467896 -1.1644897 4.6887207c-0.16247559 1.0419922 -0.1895752 1.8434448 -0.08123779 2.40448c0.1083374 0.5410156 0.33398438 1.182251 0.67700195 1.923584c0.88464355 1.6030273 1.8505249 2.7752075 2.897644 3.5165405c0.45825195 0.31896973 0.8897705 0.4784546 1.2945557 0.4784546c0.5361328 0 1.0253296 -0.27972412 1.4676514 -0.8391113c0.32495117 -0.24041748 0.8755493 -1.3424683 1.6518555 -3.3061523c0.77630615 -1.9837036 1.6609497 -3.6567993 2.6539307 -5.019348c1.3359375 -2.3243408 3.0600586 -4.9592285 5.1723633 -7.904663c2.1122437 -2.9655151 4.2425537 -5.8008423 6.39093 -8.505859c2.1664429 -2.7250366 4.0530396 -4.979248 5.659851 -6.7625732c1.6067505 -1.7833252 2.6358032 -2.6749878 3.0871582 -2.6749878c0.32495117 0 0.48742676 0.7113037 0.48742676 2.1339722c0 1.4025879 0 2.2942505 0 2.6749878c-0.32495117 0.74139404 -0.541626 2.0337524 -0.64990234 3.8771973c-0.1083374 1.8434448 -0.3881836 3.8771973 -0.8395386 6.1013794c-0.43328857 3.0656738 -0.48742676 6.111328 -0.16247559 9.136963c0.3250122 3.0056152 0.71313477 5.1896973 1.1644897 6.552185c0.66796875 2.7050781 2.1393433 4.4282837 4.4141235 5.1696167c1.5029297 0.48986816 2.7497559 0.73480225 3.7404175 0.73480225c0.50878906 0 0.9499512 -0.064575195 1.3236084 -0.19378662c0.77630615 0 1.4713745 -0.15026855 2.085205 -0.45080566c0.61376953 -0.30059814 1.1373291 -0.4508667 1.5706177 -0.4508667c0.90270996 0 1.7061157 -0.3706665 2.4101562 -1.1120605c0.72216797 -0.74139404 1.4713745 -1.5428467 2.2476807 -2.40448c0.5596924 -0.38067627 1.0561523 -0.90167236 1.4894409 -1.5628662c0.45135498 -0.6812744 0.84851074 -1.0219116 1.1915283 -1.0219116c0.541626 0 1.3901367 -0.8015137 2.5455933 -2.40448c1.1734619 -1.6030273 2.2296143 -3.2661133 3.168396 -4.989319c0.95684814 -1.7232056 1.3269043 -2.8252563 1.1102905 -3.3061523c-0.32965088 -1.4249878 -1.0928345 -2.1374512 -2.2895508 -2.1374512c-0.04852295 0 -0.097717285 0.001159668 -0.14770508 0.003479004c-1.2637329 0.06011963 -2.7260742 0.9517822 -4.387024 2.6749878c-1.3359375 1.3625488 -3.3670044 2.755127 -6.0930786 4.1777954c-2.7080688 1.4025879 -4.838379 2.2842407 -6.390991 2.6448975c-0.77630615 0 -1.2186279 -0.2705078 -1.3269653 -0.81152344c-0.10827637 -0.56103516 -0.16247559 -1.6430054 -0.16247559 -3.2460327c0 -0.9818115 0.02709961 -2.0237427 0.08123779 -3.1257935c0.05419922 -1.1220703 0.2979126 -2.1740723 0.7312012 -3.1558838c0.23468018 -1.963623 0.40618896 -3.496521 0.51452637 -4.598572c0.1083374 -1.1220703 0.24371338 -2.2041016 0.40618896 -3.2460327c0.16247559 -1.0419312 0.36108398 -2.4846191 0.59576416 -4.328064c0 -2.224121 -0.06317139 -3.887207 -0.18951416 -4.989258c-0.1083374 -1.1020508 -0.5506592 -2.3944702 -1.3269653 -3.8771973c-1.1012573 -2.5848389 -2.4282227 -4.147705 -3.980835 -4.6887207c-0.6123047 -0.22125244 -1.2512817 -0.33190918 -1.9169312 -0.33190918c-1.0222168 0 -2.1073608 0.2609253 -3.2554321 0.78271484c-0.21661377 0.480896 -0.65893555 0.94177246 -1.3269043 1.3825684c-0.6680298 0.42077637 -1.2728271 0.88165283 -1.8143921 1.3825684c0 0.36071777 -0.117370605 0.57110596 -0.35205078 0.6312256c-0.2166748 0.060058594 -0.32495117 0.090148926 -0.32495117 0.090148926c0 0 -0.22570801 0.070129395 -0.677063 0.21038818c-0.43328857 0.12023926 -0.75823975 0.611145 -0.9748535 1.4727173c-0.5596924 0.480896 -1.2005615 1.092041 -1.9227295 1.833435c-0.72216797 0.74139404 -1.4171753 1.6029663 -2.085205 2.5847778l-5.984741 8.115112l3.4933472 -9.948486c0 -4.3080444 -0.8033447 -7.814575 -2.4101562 -10.519592c-1.2207642 -2.0704346 -2.7125244 -3.1056519 -4.4752197 -3.1056519c-0.55737305 0 -1.1417847 0.10345459 -1.7532959 0.31048584c-1.0109863 0 -2.1212769 0.49090576 -3.3308716 1.4727173c-1.7872925 1.6029663 -3.3218384 2.9955444 -4.6036377 4.1777954c-1.263794 1.1621094 -2.121338 1.7432251 -2.5726929 1.7432251c0 0 -0.19854736 0.19036865 -0.59576416 0.5710449c-0.37908936 0.36065674 -0.73114014 0.7213745 -1.0560913 1.0820312c0 0.86157227 -0.14447021 1.3624878 -0.43328857 1.5028076c-0.270813 0.12017822 -0.40625 0.18029785 -0.40625 0.18029785c-0.32495117 0 -0.9929199 0.49090576 -2.0039062 1.4727783c-0.99298096 0.9818115 -1.6519165 1.7131958 -1.9768677 2.1940308c-0.5596924 0.8616333 -1.0380859 1.2924194 -1.4353027 1.2924194c-0.37908936 0 -0.28881836 -0.611145 0.270813 -1.833374l1.6519165 -2.7651367c1.5526123 -3.4464111 2.3289185 -6.4921265 2.3289185 -9.137024c0 -2.6449585 -0.77630615 -5.019348 -2.3289185 -7.123291c-0.99298096 -2.5847778 -2.491394 -4.1777344 -4.4953613 -4.7788696c-0.76953125 -0.24066162 -1.6068115 -0.36102295 -2.5119019 -0.36102295z" fill-rule="evenodd"/><path fill="#d3dae2" d="m725.59753 813.80774c-0.6600952 0 -1.383606 0.14093018 -2.1706543 0.42266846c-0.32495117 0.5009155 -1.1012573 1.9536743 -2.3289185 4.3580933c-1.2095947 2.40448 -2.9788208 6.1314087 -5.3077393 11.180847c-2.7802734 6.8928223 -4.612732 12.403076 -5.4973755 16.530762c-0.8845825 4.107605 -1.4352417 8.31543 -1.6518555 12.623474c-0.6680298 3.4464111 -0.6409302 6.161438 0.08123779 8.145142c0.72210693 1.9636841 1.9678345 3.7470093 3.7370605 5.3499756c1.9528809 2.7232056 4.0214844 4.084778 6.2058105 4.084778c0.17828369 0 0.35742188 -0.009094238 0.53723145 -0.02722168c2.3830566 -0.24047852 5.4070435 -1.6530762 9.07196 -4.237915c1.5526123 -0.86157227 3.1051636 -2.0037231 4.657837 -3.4263306c1.5525513 -1.4226685 2.5455322 -2.3744507 2.9788208 -2.8553467c0.66796875 -0.6211548 1.3630371 -1.3925781 2.085205 -2.314331c0.72216797 -0.9216919 1.2456665 -1.8133545 1.5706787 -2.6749268c0.10827637 0.741333 0.13537598 1.9736328 0.08123779 3.6968384c-0.05419922 1.7232056 0.036071777 3.0757446 0.27075195 4.057556c0.6499634 2.8252563 1.5255737 5.3198853 2.626831 7.4839478c1.1193237 2.143982 2.2386475 3.8371582 3.3579712 5.079468c1.1012573 0.86157227 2.3198853 1.2923584 3.6558838 1.2923584c1.3359375 0 2.5274658 -0.3406372 3.574585 -1.0218506c1.0471191 -0.6812744 1.6880493 -1.572937 1.9227295 -2.6749878c0.1083374 -1.4827881 0.07220459 -2.7752075 -0.1083374 -3.8772583c-0.16247559 -1.1020508 -0.84851074 -2.0838623 -2.0581055 -2.9454346c-1.6609497 -1.6030273 -2.8795776 -3.3863525 -3.6558838 -5.3499756c-0.77630615 -1.9837036 -1.1644287 -4.0875854 -1.1644287 -6.3117676c0.1083374 -2.444519 0.5235596 -4.9592285 1.2456665 -7.5440063c0.72216797 -2.5848389 2.130371 -6.4019165 4.2245483 -11.451294c2.5636597 -6.652405 4.116272 -11.8220215 4.657837 -15.508911c0.5596924 -3.7068481 0.23474121 -6.111328 -0.9748535 -7.213379c-0.5596924 -0.50097656 -0.9298096 -1.0820312 -1.1102905 -1.7432861c-0.1381836 -0.5790405 -0.37408447 -0.8685913 -0.7078247 -0.8685913c-0.058898926 0 -0.12084961 0.009033203 -0.18585205 0.027038574l-2.6538696 0.18035889c-0.12335205 -0.32635498 -0.32141113 -0.489563 -0.5942383 -0.489563c-0.24645996 0 -0.55389404 0.13311768 -0.92230225 0.39941406c-0.77630615 0.56103516 -1.3811035 1.1420898 -1.8143921 1.7432251c-1.3359375 0.86157227 -2.2025146 1.8834839 -2.5996704 3.0656738c-0.3791504 1.1621704 -0.46038818 2.4846191 -0.24377441 3.9674072c-0.10827637 2.3443604 -0.38812256 4.4683228 -0.83947754 6.371826c-0.43328857 1.9035645 -1.0922241 4.0876465 -1.9768677 6.552246c-2.9968872 7.994873 -6.0750732 13.965942 -9.234436 17.91333c-3.1593628 3.9273071 -5.9937744 6.3918457 -8.503235 7.393738c-1.526001 0.6013794 -2.770935 0.9020386 -3.7347412 0.9020386c-0.6097412 0 -1.1069946 -0.12036133 -1.4917603 -0.36102295c-1.5526123 -0.6211548 -2.220642 -2.40448 -2.0039673 -5.3499756c0.21661377 -2.9655151 0.96588135 -6.5321655 2.2476807 -10.69989c1.2817993 -4.187805 2.6989746 -8.37561 4.251587 -12.563416c1.9859009 -4.3079834 3.394104 -7.9347534 4.2245483 -10.880249c0.84851074 -2.9655151 0.93878174 -5.069397 0.270813 -6.3117065c-0.23468018 -1.7232056 -0.90270996 -2.9154053 -2.0039062 -3.5766602c-0.585083 -0.36193848 -1.251648 -0.5429077 -1.9997559 -0.5429077z" fill-rule="evenodd"/><path fill="#d3dae2" d="m808.1149 809.45154c-0.88464355 0 -1.9859009 0.12023926 -3.303833 0.36065674l-2.5184937 0.36065674c-3.4301758 1.2423096 -6.6707764 2.6048584 -9.721863 4.0876465c-3.0510254 1.4627075 -5.6326904 3.4263306 -7.744995 5.89093l0 -0.18029785c-0.77630615 0.12017822 -1.8324585 0.6411743 -3.168396 1.5628662c-1.3179321 0.9217529 -2.4191895 1.6931763 -3.303833 2.314331c-2.4552612 3.0857544 -4.350891 6.632324 -5.6868896 10.6397705c-1.3178711 3.9874268 -1.5345459 7.8847046 -0.64990234 11.691772c0.34301758 1.8634644 1.5616455 3.937317 3.6558228 6.2215576c2.1123047 2.2642212 4.6397705 4.3481445 7.5825195 6.251648c2.942749 1.9035645 5.8494263 3.2861328 8.71991 4.147705l-0.16247559 0c0.77630615 0.5009155 0.88464355 1.092041 0.32495117 1.7733154c-0.54156494 0.6612549 -1.6428833 1.4226685 -3.303772 2.2842407c-1.5526123 0.6211548 -3.1052246 1.092041 -4.657837 1.4126587c-1.5526123 0.3005371 -3.0510864 0.45080566 -4.4953613 0.45080566c-2.8886108 0 -5.109192 -0.49090576 -6.661804 -1.4727173c-0.64678955 -0.99627686 -1.2212524 -1.4943848 -1.7232666 -1.4943848c-0.18457031 0 -0.359375 0.06732178 -0.52441406 0.20196533c-0.61383057 0.480896 -0.94781494 1.3725586 -1.0019531 2.6749878c-0.054138184 1.2823486 0.30688477 2.5447388 1.0831909 3.7870483c2.5455933 4.4282227 6.598633 6.642334 12.159119 6.642334c1.2095947 0 2.5094604 -0.090148926 3.8995972 -0.2705078c1.3901367 -0.18029785 2.807312 -0.52093506 4.251648 -1.0218506l-0.16247559 0c2.762146 -0.6211548 5.109131 -1.5128174 7.0408936 -2.6749878c1.9497681 -1.1621704 3.3399048 -2.5447388 4.170349 -4.147766c0.8305054 -1.6029663 0.80340576 -3.145813 -0.08123779 -4.628601l0 0.18035889c0 -0.12023926 -0.10827637 -0.3005371 -0.32495117 -0.5410156c0.2166748 -0.26049805 0.35205078 -0.7213135 0.40618896 -1.3825684c0.05419922 -0.6812744 -0.027038574 -1.2723389 -0.24371338 -1.7733154c-0.77630615 -2.0838623 -2.1664429 -3.9273071 -4.170349 -5.5302734c-1.9859009 -1.6029663 -4.4231567 -3.0757446 -7.3117676 -4.418213c-3.664856 -1.8634644 -6.4089966 -3.496521 -8.232422 -4.899109c-1.8234253 -1.4226685 -2.7351074 -2.8152466 -2.7351074 -4.1777954c0 -0.60113525 0.1895752 -1.3024292 0.56866455 -2.1038818c0.3972168 -0.8015137 0.86657715 -1.6330566 1.4082031 -2.49469c0.77630615 -1.8434448 1.6609497 -3.4764404 2.6538696 -4.899109c1.0109863 -1.4226685 2.3469849 -2.8953857 4.0079346 -4.418213c1.6608887 -1.5428467 3.709961 -3.1759033 6.147217 -4.899109c2.0039673 -1.7232056 4.477295 -3.0757446 7.420044 -4.057556c2.1324463 -0.7260132 3.8999023 -1.0889893 5.302307 -1.0889893c0.532959 0 1.0131836 0.0524292 1.4407349 0.1572876c1.3179321 0.12017822 2.0581055 0.31054688 2.220581 0.5710449c0.18054199 0.24041748 0.16247559 1.0319214 -0.054138184 2.3743896c-0.12640381 1.1221313 -0.1895752 2.143982 -0.1895752 3.0657349c0 0.9216919 0.17150879 1.7532349 0.51452637 2.494629c0.21661377 0.480896 0.35205078 0.88165283 0.40618896 1.2022095c0.054138184 0.30059814 0.08123779 0.4508667 0.08123779 0.4508667l0.51452637 -0.36065674c0.541626 0.36065674 1.0651855 0.70129395 1.5706787 1.0219116c0.50549316 0.3005371 0.6409302 0.5109253 0.40618896 0.63116455c1.4442749 -0.24047852 2.6900024 -1.2824097 3.7371216 -3.1258545c1.0651245 -1.8634644 1.7060547 -3.9673462 1.9227295 -6.3117065c0.23468018 -1.4627686 -0.009033203 -3.0256348 -0.7312012 -4.6887207c-0.72216797 -1.6630859 -1.6970215 -3.105774 -2.9246826 -4.328064c-1.2095947 -1.2423096 -2.53656 -1.9837036 -3.980835 -2.224121c-0.45135498 0 -1.0109863 -0.19036865 -1.6789551 -0.57110596c-0.43328857 -0.12017822 -0.92974854 -0.2705078 -1.4894409 -0.45080566c-0.5596924 -0.18035889 -0.78533936 -0.2705078 -0.67700195 -0.2705078z" fill-rule="evenodd"/><path fill="#d3dae2" d="m847.38434 782.10065c-1.6609497 0.14025879 -2.9337158 0.9818115 -3.8183594 2.5246582c-0.88464355 1.5228882 -1.4713745 3.2460938 -1.7601929 5.1696167c-0.270813 1.9035645 -0.35205078 3.4664917 -0.24371338 4.6887817c0 0.24041748 0.41522217 0.9517212 1.2456665 2.1339111c0.8305054 1.1621704 1.8234253 2.274292 2.9788208 3.3362427c1.173523 1.0419312 2.1483765 1.6229858 2.9247437 1.7432251c0.9026489 0.60113525 1.5435791 0.94177246 1.9226685 1.0219116c0.05419922 0.008178711 0.10870361 0.012329102 0.16351318 0.012329102c0.347229 0 0.7080078 -0.16442871 1.0822144 -0.4932251c2.220581 -1.7232056 3.3850098 -3.6567993 3.4933472 -5.8007812c0.1083374 -2.1640625 -0.27978516 -4.378174 -1.1644287 -6.642395c-0.88464355 -2.2842407 -1.7692871 -4.3480835 -2.6538696 -6.1914673c-1.6609497 -0.74139404 -2.6629028 -1.1721802 -3.0059814 -1.2924194c-0.32495117 -0.14025879 -0.71307373 -0.21038818 -1.1644287 -0.21038818zm-10.604919 40.201416c-0.6594238 0 -1.168457 0.32507324 -1.5270996 0.9751587c-0.23474121 0.50097656 -0.6860962 1.9837036 -1.354065 4.448303c-0.64990234 2.4645996 -1.3900757 5.420105 -2.220581 8.866516c-0.83044434 3.4464111 -1.6338501 6.862732 -2.4101562 10.249084c-0.77630615 3.3862915 -1.3901367 6.251587 -1.8414307 8.595947c-0.2166748 1.9636841 -0.41522217 3.8672485 -0.59576416 5.7106323c-0.16253662 1.8434448 -0.2979126 3.2561035 -0.40625 4.237915c0.2166748 1.9837036 0.90270996 4.1777344 2.0581055 6.5822144c1.173523 2.3844604 2.5997314 3.7069092 4.2787476 3.9674072c0.10205078 0.0138549805 0.19970703 0.020812988 0.29284668 0.020812988c0.7144165 0 1.1674194 -0.40771484 1.3590698 -1.2230835c0.21661377 -0.9216919 0.55059814 -3.4764404 1.0019531 -7.6642456c-0.1083374 -3.3261719 0.13537598 -6.4920654 0.73114014 -9.497681c0.61383057 -3.0256348 1.5346069 -7.0029907 2.762207 -11.93219c1.3359985 -5.0493774 2.2476807 -8.866516 2.7351685 -11.451294c0.50549316 -2.5848389 0.67700195 -4.548462 0.51452637 -5.890991c-0.16253662 -1.3624878 -0.5777588 -2.534668 -1.2457275 -3.5165405c-0.77630615 -1.001831 -1.7782593 -1.7432251 -3.0059204 -2.224121c-0.4147339 -0.16925049 -0.79034424 -0.2538452 -1.12677 -0.2538452zm52.87549 -13.42157c-0.88464355 0 -2.0220337 0.10015869 -3.4121094 0.3005371c-1.3901367 0.18029785 -2.8615112 0.6411743 -4.4141235 1.3825684c-1.7692261 0.86157227 -3.7641602 2.5247192 -5.9848022 4.989258c-2.220581 2.44458 -4.441162 5.149597 -6.661743 8.115112c-2.5455933 3.5666504 -4.9015503 7.814575 -7.067993 12.743713c-2.1664429 4.9091797 -3.8093262 9.798218 -4.92865 14.667297c-1.1012573 4.8690796 -1.4804077 9.147034 -1.1373901 12.833862c0 3.9473877 0.80340576 7.1834106 2.4101562 9.708069c1.6068115 2.5247192 3.7371216 4.3080444 6.390991 5.3499756c1.6740112 0.652771 3.4542847 0.979187 5.3408203 0.979187c1.1246948 0 2.2871704 -0.11602783 3.4874268 -0.34802246c1.5525513 -0.36065674 3.348877 -1.0319214 5.388977 -2.013733c2.0581055 -0.9818115 3.890564 -1.963623 5.4973145 -2.9454956c1.6248169 -1.001831 2.4372559 -1.6229858 2.4372559 -1.8634644c0 -0.74139404 0.55059814 -1.1120605 1.6519165 -1.1120605c0.66796875 0 1.8053589 -0.6411743 3.4121094 -1.923584c1.6067505 -1.3024292 3.2947998 -2.8753662 5.064026 -4.71875c1.7873535 -1.8434448 3.258667 -3.536621 4.4141235 -5.079468c1.1734619 -1.5429077 1.6428833 -2.5547485 1.4082031 -3.0356445c0 0 0.027038574 -0.15026855 0.08123779 -0.4508667c0.07220459 -0.32055664 0.32495117 -0.480896 0.75823975 -0.480896c0.66796875 -0.36065674 0.85754395 -0.7914429 0.56866455 -1.2924194c-0.27075195 -0.5009155 -0.7943115 -0.9918213 -1.5706177 -1.4727173c-0.77630615 -0.5009155 -1.6068115 -0.87164307 -2.491394 -1.1120605c-1.3359985 0 -2.3379517 0.13024902 -3.0059814 0.39074707c-0.64990234 0.24041748 -1.4171753 1.092041 -2.3018188 2.5547485c-0.9026489 0.5009155 -1.7421265 1.18219 -2.5184937 2.0437622c-0.77630615 0.8616333 -1.4352417 1.4727783 -1.9768677 1.833435c-1.6789551 1.3625488 -3.6287231 2.8753662 -5.849365 4.538452c-2.2025146 1.6630859 -4.1974487 2.9855347 -5.984741 3.9673462c-1.2095947 0.74139404 -3.1503906 1.2623901 -5.8223267 1.5629272c-1.0206909 0.115600586 -1.9599609 0.17340088 -2.81781 0.17340088c-1.3724976 0 -2.536499 -0.14794922 -3.4918823 -0.4439087c-0.3430786 -0.12023926 -0.59576416 -1.222229 -0.7583008 -3.3061523c-0.16247559 -2.1038818 0.090270996 -4.5684814 0.7583008 -7.393738c1.6608887 -7.2735596 3.5474854 -13.334839 5.65979 -18.183838c2.1122437 -4.8690796 4.4141235 -8.846497 6.9055176 -11.93219c2.491394 -3.0857544 5.1271973 -5.4902344 7.9074707 -7.21344c1.0580444 -0.4716797 1.9515991 -0.70751953 2.680542 -0.70751953c0.78845215 0 1.3843384 0.27593994 1.7877197 0.8277588c0.79437256 1.0419312 0.85754395 3.2861328 0.1895752 6.732483c-0.45135498 2.3443604 -0.90270996 4.2579346 -1.3540039 5.7407227c-0.43328857 1.4627075 -0.6499634 2.5046387 -0.6499634 3.1257935c0.32495117 0.9818115 0.82141113 1.8133545 1.4894409 2.494629c0.66796875 0.6612549 1.3088989 1.0620117 1.9227295 1.2022705c0.099487305 0.019470215 0.190979 0.02923584 0.27435303 0.02923584c0.4309082 0 0.6463623 -0.26019287 0.6463623 -0.78063965c0 -0.6211548 0.1895752 -0.961792 0.56866455 -1.0219116c0.3972168 -0.06011963 0.81243896 -0.090148926 1.2457275 -0.090148926c0.88464355 0 1.8775635 -0.8616333 2.9788208 -2.5848389c1.1193237 -1.7232056 1.9046631 -3.756958 2.356018 -6.1013184c0.66796875 -1.3425293 0.93878174 -3.0256348 0.8123779 -5.0494385c-0.10827637 -2.0437622 -0.41522217 -3.8671875 -0.92071533 -5.470154c-0.48742676 -1.6029663 -1.0651245 -2.40448 -1.7331543 -2.40448c0 0 -0.13537598 -0.15026855 -0.40618896 -0.45080566c-0.270813 -0.30059814 -0.40618896 -0.4508667 -0.40618896 -0.4508667c0 -1.482727 -1.0290527 -2.8653564 -3.0871582 -4.147705c-2.0581665 -1.3024292 -3.9718628 -2.2041016 -5.741089 -2.705017z" fill-rule="evenodd"/></g></svg>