<svg version="1.1" viewBox="0.0 0.0 512.0 512.0" fill="none" stroke="none" stroke-linecap="square" stroke-miterlimit="10" xmlns:xlink="http://www.w3.org/1999/xlink" xmlns="http://www.w3.org/2000/svg"><clipPath id="p.0"><path d="m0 0l512.0 0l0 512.0l-512.0 0l0 -512.0z" clip-rule="nonzero"/></clipPath><g clip-path="url(#p.0)"><path fill="#000000" fill-opacity="0.0" d="m0 0l512.0 0l0 512.0l-512.0 0z" fill-rule="evenodd"/><path fill="#ffffff" d="m30.832935 256.00018l0 0c0 -67.01166 55.10316 -121.33536 123.07637 -121.33536l0 0c32.641876 0 63.946823 12.783508 87.02812 35.538315c23.081284 22.754791 36.048233 53.616913 36.048233 85.79704l0 0c0 67.01169 -55.103165 121.33536 -123.076355 121.33536l0 0c-67.973206 0 -123.07637 -54.32367 -123.07637 -121.33536z" fill-rule="evenodd"/><path stroke="#f4cccc" stroke-width="15.779527559055119" stroke-linejoin="round" stroke-linecap="butt" d="m30.832935 256.00018l0 0c0 -67.01166 55.10316 -121.33536 123.07637 -121.33536l0 0c32.641876 0 63.946823 12.783508 87.02812 35.538315c23.081284 22.754791 36.048233 53.616913 36.048233 85.79704l0 0c0 67.01169 -55.103165 121.33536 -123.076355 121.33536l0 0c-67.973206 0 -123.07637 -54.32367 -123.07637 -121.33536z" fill-rule="evenodd"/><path fill="#ea9999" d="m63.547478 255.99405l0 0c0 -49.90103 40.452766 -90.35379 90.35378 -90.35379l0 0c23.963318 0 46.94516 9.519379 63.889786 26.464005c16.94461 16.944626 26.464005 39.926468 26.464005 63.889786l0 0c0 49.901 -40.452774 90.35379 -90.35379 90.35379l0 0c-49.901016 0 -90.35378 -40.45279 -90.35378 -90.35379z" fill-rule="evenodd"/><path fill="#f3f3f3" d="m121.30392 231.47997c-4.0798187 0 -7.762985 0.457489 -11.049507 1.3724518c-3.27034 0.91496277 -6.0468826 2.2002716 -8.329636 3.8559265c-2.282753 1.6556396 -4.03125 3.6526031 -5.2454834 5.9908447c-1.2142334 2.3237152 -1.8213501 4.8798065 -1.8213501 7.668274c0 2.7449036 0.44522095 5.0976715 1.3356552 7.058319c0.90662384 1.9606323 2.0965729 3.6380615 3.569847 5.0322876c1.4894562 1.3942261 3.1650925 2.5706177 5.0269165 3.5291443c1.8780136 0.9585571 3.7965012 1.8081665 5.7554626 2.5488586c1.9751511 0.7406616 3.8936386 1.4160156 5.7554626 2.0259705c1.8780136 0.60998535 3.55365 1.2635498 5.0269165 1.9606628c1.4894638 0.69711304 2.6794128 1.5176697 3.569847 2.46167c0.90662384 0.9295044 1.3599396 2.0477905 1.3599396 3.354889c0 1.1328125 -0.24285126 2.1349182 -0.7285385 3.0063171c-0.4856949 0.8713989 -1.2061386 1.5903015 -2.1613388 2.1567078c-0.939003 0.56640625 -2.056099 1.0021057 -3.3512802 1.3070679c-1.2789841 0.30499268 -2.7441635 0.457489 -4.3955154 0.457489c-2.6227417 0 -4.9702606 -0.28320312 -7.042549 -0.8496094c-2.056099 -0.56640625 -3.8612595 -1.1763916 -5.415474 -1.8299255c-1.5542145 -0.65353394 -2.8574982 -1.2489929 -3.9098282 -1.7863464c-1.0361481 -0.5519104 -1.8213501 -0.82785034 -2.3556137 -0.82785034c-0.43711853 0 -0.8013916 0.07989502 -1.092804 0.23965454c-0.29141998 0.14523315 -0.5342636 0.4501953 -0.7285385 0.9149475c-0.19428253 0.45022583 -0.3399887 1.0602112 -0.43712616 1.8299255c-0.09713745 0.7552185 -0.14570618 1.7645874 -0.14570618 3.0281067c0 1.9170837 0.14570618 3.3693848 0.43711853 4.3569946c0.29141998 0.973053 0.70425415 1.6919556 1.2385178 2.1567078c0.5342636 0.4501953 1.3842239 0.93673706 2.5498886 1.4595642c1.1656647 0.52285767 2.6227417 1.0384216 4.3712387 1.5467224c1.7484894 0.49380493 3.7236404 0.90045166 5.925453 1.2199707c2.2179947 0.3340454 4.5412292 0.5010376 6.9696884 0.5010376c4.03125 0 7.7710876 -0.42843628 11.219505 -1.2853088c3.4484177 -0.8423462 6.4354324 -2.1131287 8.961037 -3.8123474c2.5256042 -1.6992188 4.476471 -3.8123474 5.8526 -6.339386c1.3923187 -2.527069 2.0884705 -5.446228 2.0884705 -8.757538c0 -2.6577454 -0.46139526 -4.952423 -1.3842163 -6.884033c-0.92282104 -1.946106 -2.1370544 -3.616272 -3.6427002 -5.0105286c-1.5056458 -1.3942261 -3.221756 -2.5706177 -5.148346 -3.5291443c-1.9103851 -0.9585266 -3.8531647 -1.7936096 -5.828308 -2.505249c-1.9589615 -0.7261658 -3.9017334 -1.3942261 -5.8283157 -2.0042114c-1.9103928 -0.60998535 -3.6184158 -1.2635345 -5.1240616 -1.9606476c-1.5056458 -0.69711304 -2.7198792 -1.5031586 -3.6426926 -2.4181213c-0.92282104 -0.91496277 -1.3842316 -2.0477753 -1.3842316 -3.3984375c0 -0.8713989 0.19428253 -1.6846924 0.58283234 -2.439911c0.38855743 -0.7697296 0.9713898 -1.4378052 1.748497 -2.0042114c0.77710724 -0.56640625 1.7727814 -1.0021057 2.9870071 -1.3070984c1.2142334 -0.30497742 2.647026 -0.45747375 4.2983856 -0.45747375c2.3313293 0 4.403618 0.2323761 6.2168655 0.69711304c1.8294449 0.45022583 3.432228 0.9367523 4.8083572 1.4595947c1.3923187 0.52282715 2.5498962 1.0166168 3.472702 1.481369c0.92282104 0.45022583 1.6027985 0.6753235 2.039917 0.6753235c0.3885498 0 0.72854614 -0.07261658 1.0199585 -0.21784973c0.29141235 -0.15974426 0.5180664 -0.45747375 0.67996216 -0.8931732c0.17808533 -0.43569946 0.29951477 -1.0238953 0.36427307 -1.7645721c0.080947876 -0.74069214 0.12142944 -1.6992188 0.12142944 -2.8756104c0 -1.0021057 -0.040481567 -1.8371887 -0.12142944 -2.5052643c-0.0647583 -0.68258667 -0.14570618 -1.2489929 -0.24284363 -1.6992188c-0.09713745 -0.46473694 -0.24284363 -0.85687256 -0.43711853 -1.1763763c-0.19429016 -0.3340454 -0.5261688 -0.6608124 -0.99568176 -0.9803314c-0.4533081 -0.33403015 -1.2142334 -0.7261505 -2.2827454 -1.1763763c-1.0685272 -0.4647522 -2.379898 -0.8931885 -3.9341125 -1.2853088c-1.5542297 -0.39213562 -3.2946167 -0.7189026 -5.2212067 -0.98031616c-1.9103851 -0.26142883 -3.8855438 -0.39213562 -5.925453 -0.39213562z" fill-rule="evenodd"/><path fill="#f3f3f3" d="m166.61906 232.59099c-1.7484894 0 -3.2217712 0.05810547 -4.4198 0.17428589c-1.1818542 0.10166931 -2.1289673 0.26141357 -2.8413086 0.4792633c-0.696167 0.21784973 -1.1818542 0.49378967 -1.457077 0.8278351c-0.2590332 0.31950378 -0.3885498 0.69711304 -0.3885498 1.1328125l0 35.68364c0 4.4441223 0.39663696 8.162079 1.1899414 11.15387c0.809494 2.9772644 2.1451416 5.5987244 4.006958 7.8643494c1.8780212 2.265625 4.330765 4.0519714 7.358261 5.35907c3.0436707 1.3070984 6.799698 1.9606323 11.268066 1.9606323c3.9826813 0 7.827759 -0.8713989 11.535202 -2.6141663c3.723648 -1.7427979 7.382538 -4.3569946 10.976669 -7.84256l0 6.7315063c0 0.43569946 0.121414185 0.82058716 0.3642578 1.154602c0.24285889 0.31951904 0.6556854 0.5881958 1.2385254 0.8060608c0.5828247 0.21783447 1.3680267 0.377594 2.355606 0.47924805c1.0037689 0.11621094 2.3070374 0.17428589 3.9098358 0.17428589c1.5056458 0 2.752243 -0.05807495 3.7398224 -0.17428589c1.0037689 -0.10165405 1.8051605 -0.26141357 2.40419 -0.47924805c0.61520386 -0.21786499 1.0442352 -0.48654175 1.2870789 -0.8060608c0.24284363 -0.3340149 0.36427307 -0.7189026 0.36427307 -1.154602l0 -58.29634c0 -0.43569946 -0.14570618 -0.8133087 -0.43711853 -1.1328125c-0.2914276 -0.3340454 -0.77711487 -0.60998535 -1.457077 -0.8278351c-0.6799774 -0.21784973 -1.6027985 -0.377594 -2.7684631 -0.4792633c-1.1656494 -0.11618042 -2.6470184 -0.17428589 -4.4440765 -0.17428589c-1.7970734 0 -3.2784271 0.05810547 -4.444092 0.17428589c-1.1656647 0.10166931 -2.1046753 0.26141357 -2.8170166 0.4792633c-0.696167 0.21784973 -1.1818542 0.49378967 -1.4570923 0.8278351c-0.2590332 0.31950378 -0.3885498 0.69711304 -0.3885498 1.1328125l0 38.755325c-2.6713104 2.919159 -5.1888123 5.141205 -7.5525208 6.666168c-2.347519 1.5249329 -4.6869354 2.2874146 -7.018265 2.2874146c-1.8456268 0 -3.4646149 -0.31225586 -4.8569336 -0.9367676c-1.3761292 -0.63900757 -2.5175018 -1.532196 -3.4241333 -2.679535c-0.89042664 -1.1618652 -1.5542145 -2.5488281 -1.991333 -4.160919c-0.43711853 -1.6120605 -0.6556854 -3.9430542 -0.6556854 -6.9929504l0 -32.938736c0 -0.43569946 -0.14570618 -0.8133087 -0.43711853 -1.1328125c-0.2914276 -0.3340454 -0.79330444 -0.60998535 -1.505661 -0.8278351c-0.69615173 -0.21784973 -1.6270599 -0.377594 -2.7927246 -0.4792633c-1.1656647 -0.11618042 -2.6470337 -0.17428589 -4.444092 -0.17428589z" fill-rule="evenodd"/><path fill="#000000" d="m284.83234 253.48145c4.113098 1.5860748 7.483032 3.691101 10.109741 6.3151245c2.6328125 2.6082458 4.507904 5.7026978 5.6252747 9.283386c1.1173706 3.580658 1.4528198 7.592987 1.0063477 12.036926c-0.4307251 4.450012 -1.6669922 9.32251 -3.7088318 14.617554l-1.9415588 5.0350037c-2.6616516 6.902466 -5.916321 12.408661 -9.763947 16.518585c-3.8318787 4.116028 -8.151703 6.7042847 -12.959534 7.7648315c-4.801758 1.0447388 -9.991974 0.4915161 -15.570679 -1.6596985l-10.424591 -4.0198364l26.990417 -69.99376zm-25.485748 -28.97084l-39.815674 103.25319l31.699295 12.223633c6.9970245 2.6981506 13.83699 3.9961548 20.519943 3.8940125c6.704773 -0.111816406 12.977753 -1.5215149 18.81897 -4.229126c5.863037 -2.7172852 11.103851 -6.661072 15.722443 -11.83139c4.6343384 -5.1642456 8.36438 -11.41037 11.1901245 -18.738312l1.8868713 -4.8931885c2.8439636 -7.3752136 4.2762146 -14.516418 4.2967834 -21.423584c0.0423584 -6.91687 -1.2016602 -13.361298 -3.7321167 -19.333313c-2.530426 -5.9720154 -6.221985 -11.233246 -11.0746765 -15.78363c-4.8308105 -4.560089 -10.697479 -8.170959 -17.599915 -10.832626z" fill-rule="evenodd"/><path stroke="#000000" stroke-width="0.8713910761154855" stroke-linejoin="round" stroke-linecap="butt" d="m284.83234 253.48145c4.113098 1.5860748 7.483032 3.691101 10.109741 6.3151245c2.6328125 2.6082458 4.507904 5.7026978 5.6252747 9.283386c1.1173706 3.580658 1.4528198 7.592987 1.0063477 12.036926c-0.4307251 4.450012 -1.6669922 9.32251 -3.7088318 14.617554l-1.9415588 5.0350037c-2.6616516 6.902466 -5.916321 12.408661 -9.763947 16.518585c-3.8318787 4.116028 -8.151703 6.7042847 -12.959534 7.7648315c-4.801758 1.0447388 -9.991974 0.4915161 -15.570679 -1.6596985l-10.424591 -4.0198364l26.990417 -69.99376zm-25.485748 -28.97084l-39.815674 103.25319l31.699295 12.223633c6.9970245 2.6981506 13.83699 3.9961548 20.519943 3.8940125c6.704773 -0.111816406 12.977753 -1.5215149 18.81897 -4.229126c5.863037 -2.7172852 11.103851 -6.661072 15.722443 -11.83139c4.6343384 -5.1642456 8.36438 -11.41037 11.1901245 -18.738312l1.8868713 -4.8931885c2.8439636 -7.3752136 4.2762146 -14.516418 4.2967834 -21.423584c0.0423584 -6.91687 -1.2016602 -13.361298 -3.7321167 -19.333313c-2.530426 -5.9720154 -6.221985 -11.233246 -11.0746765 -15.78363c-4.8308105 -4.560089 -10.697479 -8.170959 -17.599915 -10.832626z" fill-rule="evenodd"/><path fill="#000000" d="m370.51028 254.9968c3.6254578 -0.8399048 7.0148926 -0.8544159 10.168304 -0.043548584c3.1497192 0.7949829 6.034027 2.3970032 8.652954 4.806122c2.618927 2.4090881 4.9155273 5.5965576 6.8898315 9.562378c1.9742737 3.9658203 3.602417 8.715546 4.884369 14.249115l1.1769714 5.080414c1.2709045 5.485901 1.8953857 10.459747 1.8735046 14.921539c-0.02557373 4.445862 -0.65719604 8.3368225 -1.894867 11.672913c-1.241394 3.3201294 -3.0980225 6.0456543 -5.5699463 8.176483c-2.4718933 2.1308289 -5.520569 3.616211 -9.146057 4.4561157c-3.6254578 0.8399048 -7.0167236 0.84646606 -10.173828 0.019683838c-3.157074 -0.8267822 -6.046936 -2.4526672 -8.669525 -4.8776855c-2.6263123 -2.4408875 -4.9284363 -5.6522217 -6.9064026 -9.633942c-1.9816589 -3.9976196 -3.6079407 -8.73938 -4.878845 -14.22525l-1.1769714 -5.080414c-1.2819519 -5.5336 -1.9082947 -10.515411 -1.8790588 -14.945374c0.029266357 -4.4299927 0.67437744 -8.29895 1.9353333 -11.606903c1.2768555 -3.311615 3.1390076 -6.0132446 5.586487 -8.104919c2.4596863 -2.111267 5.502289 -3.5868378 9.127747 -4.4267273zm-3.961914 -17.101685c-6.53537 1.5140381 -12.243439 4.067871 -17.124207 7.6615143c-4.864868 3.5899506 -8.755188 8.059921 -11.670868 13.409927c-2.8998108 5.3463135 -4.6954956 11.4086 -5.3870544 18.18686c-0.69525146 6.7623596 -0.12008667 14.12677 1.7254944 22.093231l1.1437988 4.937317c1.8345337 7.918762 4.5624695 14.776062 8.183807 20.57193c3.637207 5.7921753 7.947571 10.43988 12.931061 13.943146c4.979767 3.4873657 10.443634 5.773529 16.39154 6.85849c5.963806 1.0812988 12.213379 0.8649597 18.748749 -0.64907837c6.583069 -1.5250854 12.307037 -4.082611 17.171906 -7.672577c4.8807983 -3.593628 8.766815 -8.045868 11.658081 -13.356689c2.8875732 -5.326721 4.6753235 -11.3871765 5.3631897 -18.181335c0.6878967 -6.794159 0.11456299 -14.150635 -1.7199707 -22.069397l-1.1437988 -4.9372864c-1.845581 -7.9664917 -4.583313 -14.829895 -8.213165 -20.590271c-3.6176453 -5.779953 -7.9121094 -10.431366 -12.883362 -13.954193c-4.955353 -3.526535 -10.4149475 -5.8304443 -16.378754 -6.911743c-5.9479065 -1.0849762 -12.213379 -0.8649292 -18.796448 0.66015625z" fill-rule="evenodd"/><path stroke="#000000" stroke-width="0.8713910761154855" stroke-linejoin="round" stroke-linecap="butt" d="m370.51028 254.9968c3.6254578 -0.8399048 7.0148926 -0.8544159 10.168304 -0.043548584c3.1497192 0.7949829 6.034027 2.3970032 8.652954 4.806122c2.618927 2.4090881 4.9155273 5.5965576 6.8898315 9.562378c1.9742737 3.9658203 3.602417 8.715546 4.884369 14.249115l1.1769714 5.080414c1.2709045 5.485901 1.8953857 10.459747 1.8735046 14.921539c-0.02557373 4.445862 -0.65719604 8.3368225 -1.894867 11.672913c-1.241394 3.3201294 -3.0980225 6.0456543 -5.5699463 8.176483c-2.4718933 2.1308289 -5.520569 3.616211 -9.146057 4.4561157c-3.6254578 0.8399048 -7.0167236 0.84646606 -10.173828 0.019683838c-3.157074 -0.8267822 -6.046936 -2.4526672 -8.669525 -4.8776855c-2.6263123 -2.4408875 -4.9284363 -5.6522217 -6.9064026 -9.633942c-1.9816589 -3.9976196 -3.6079407 -8.73938 -4.878845 -14.22525l-1.1769714 -5.080414c-1.2819519 -5.5336 -1.9082947 -10.515411 -1.8790588 -14.945374c0.029266357 -4.4299927 0.67437744 -8.29895 1.9353333 -11.606903c1.2768555 -3.311615 3.1390076 -6.0132446 5.586487 -8.104919c2.4596863 -2.111267 5.502289 -3.5868378 9.127747 -4.4267273zm-3.961914 -17.101685c-6.53537 1.5140381 -12.243439 4.067871 -17.124207 7.6615143c-4.864868 3.5899506 -8.755188 8.059921 -11.670868 13.409927c-2.8998108 5.3463135 -4.6954956 11.4086 -5.3870544 18.18686c-0.69525146 6.7623596 -0.12008667 14.12677 1.7254944 22.093231l1.1437988 4.937317c1.8345337 7.918762 4.5624695 14.776062 8.183807 20.57193c3.637207 5.7921753 7.947571 10.43988 12.931061 13.943146c4.979767 3.4873657 10.443634 5.773529 16.39154 6.85849c5.963806 1.0812988 12.213379 0.8649597 18.748749 -0.64907837c6.583069 -1.5250854 12.307037 -4.082611 17.171906 -7.672577c4.8807983 -3.593628 8.766815 -8.045868 11.658081 -13.356689c2.8875732 -5.326721 4.6753235 -11.3871765 5.3631897 -18.181335c0.6878967 -6.794159 0.11456299 -14.150635 -1.7199707 -22.069397l-1.1437988 -4.9372864c-1.845581 -7.9664917 -4.583313 -14.829895 -8.213165 -20.590271c-3.6176453 -5.779953 -7.9121094 -10.431366 -12.883362 -13.954193c-4.955353 -3.526535 -10.4149475 -5.8304443 -16.378754 -6.911743c-5.9479065 -1.0849762 -12.213379 -0.8649292 -18.796448 0.66015625z" fill-rule="evenodd"/><path fill="#000000" d="m453.52176 243.68295l3.2682495 75.6254l20.82547 0l3.2682495 -75.6254zm13.528961 86.34216c-4.2056274 0 -7.625885 1.2329712 -10.260712 3.698944c-2.6348572 2.4490662 -3.952301 5.497711 -3.952301 9.145996c0 3.6482544 1.3174438 6.705353 3.952301 9.171295c2.6348267 2.4490662 6.055084 3.6736145 10.260712 3.6736145c4.2056274 0 7.609009 -1.2245483 10.210083 -3.6736145c2.6179504 -2.4659424 3.926941 -5.523041 3.926941 -9.171295c0 -3.648285 -1.3089905 -6.69693 -3.926941 -9.145996c-2.6010742 -2.465973 -6.0044556 -3.698944 -10.210083 -3.698944z" fill-rule="evenodd"/><path stroke="#000000" stroke-width="0.8713910761154855" stroke-linejoin="round" stroke-linecap="butt" d="m453.52176 243.68295l3.2682495 75.6254l20.82547 0l3.2682495 -75.6254zm13.528961 86.34216c-4.2056274 0 -7.625885 1.2329712 -10.260712 3.698944c-2.6348572 2.4490662 -3.952301 5.497711 -3.952301 9.145996c0 3.6482544 1.3174438 6.705353 3.952301 9.171295c2.6348267 2.4490662 6.055084 3.6736145 10.260712 3.6736145c4.2056274 0 7.609009 -1.2245483 10.210083 -3.6736145c2.6179504 -2.4659424 3.926941 -5.523041 3.926941 -9.171295c0 -3.648285 -1.3089905 -6.69693 -3.926941 -9.145996c-2.6010742 -2.465973 -6.0044556 -3.698944 -10.210083 -3.698944z" fill-rule="evenodd"/></g></svg>
